<?xml version="1.0" encoding="utf-8"?>
<!-- Generator: Adobe Illustrator 26.4.0, SVG Export Plug-In . SVG Version: 6.00 Build 0)  -->
<svg version="1.1" id="Layer_1" xmlns="http://www.w3.org/2000/svg" xmlns:xlink="http://www.w3.org/1999/xlink" x="0px" y="0px"
	 width="324.4px" height="213.8px" viewBox="0 0 324.4 213.8" style="enable-background:new 0 0 324.4 213.8;" xml:space="preserve"
	>
<style type="text/css">
	.st0{fill:#ADBBF9;}
	.st1{fill:#E4E9F9;}
	.st2{fill:#FFFFFF;}
	.st3{fill:#849CF4;}
	.st4{fill:#4643BF;}
	.st5{clip-path:url(#SVGID_00000043436160987281699850000001915225398484858786_);}
	.st6{fill:#D3DBF4;}
	.st7{fill:#E3EAFC;}
	.st8{fill:#F0F1FF;}
	.st9{fill:#C2CFEF;}
	.st10{fill:#FFCBBD;}
	.st11{fill:#F7471E;}
	.st12{fill:#B22B19;}
	.st13{fill:#0E32AE;}
	.st14{fill:#121649;}
	.st15{fill:#FFCBBB;}
	.st16{fill:#EF977F;}
	.st17{fill:#4A1A1A;}
	.st18{fill:#F7A794;}
	.st19{fill:#212237;}
	.st20{fill:#18277A;}
	.st21{fill:#0D219B;}
	.st22{fill:#E88872;}
	.st23{fill:#28364C;}
	.st24{fill:#525BCE;}
	.st25{fill:#F49C8E;}
	.st26{fill:#E23917;}
	.st27{fill:#5565AA;}
	.st28{fill-rule:evenodd;clip-rule:evenodd;fill:#FFCBBB;}
	.st29{fill:#14122D;}
</style>
<g id="OBJECTS">
	<g>
		<g>
			<g>
				<path class="st0" d="M236.5,184.9l0-0.5c0.6,0,1.2,0,1.7,0l0,0.5C237.6,184.9,237,184.9,236.5,184.9z M234.7,184.9
					c-0.6,0-1.2,0-1.7,0l0-0.5c0.6,0,1.2,0,1.7,0L234.7,184.9z M239.9,184.8l0-0.5c0.6,0,1.2,0,1.7-0.1l0,0.5
					C241.1,184.8,240.5,184.8,239.9,184.8z M231.2,184.8c-0.6,0-1.2-0.1-1.7-0.1l0-0.5c0.6,0,1.2,0.1,1.7,0.1L231.2,184.8z
					 M243.4,184.6l0-0.5c0.6,0,1.1-0.1,1.7-0.2l0.1,0.5C244.6,184.5,244,184.6,243.4,184.6z M227.8,184.6c-0.6,0-1.2-0.1-1.7-0.1
					l0-0.5c0.6,0,1.2,0.1,1.7,0.1L227.8,184.6z M224.3,184.3c-0.6-0.1-1.2-0.1-1.7-0.2l0-0.5c0.6,0.1,1.1,0.1,1.7,0.2L224.3,184.3z
					 M246.9,184.3l-0.1-0.5c0.6-0.1,1.1-0.2,1.7-0.2l0.1,0.5C248,184.1,247.4,184.2,246.9,184.3z M220.9,184
					c-0.6-0.1-1.2-0.1-1.7-0.2l0.1-0.5c0.6,0.1,1.1,0.1,1.7,0.2L220.9,184z M250.3,183.7l-0.1-0.5c0.6-0.1,1.1-0.2,1.7-0.3l0.1,0.5
					C251.5,183.5,250.9,183.6,250.3,183.7z M217.4,183.6c-0.6-0.1-1.2-0.1-1.7-0.2l0.1-0.5c0.6,0.1,1.1,0.1,1.7,0.2L217.4,183.6z
					 M214,183.1l-1.1-0.1c-0.2,0-0.4-0.1-0.6-0.1l0.1-0.5c0.2,0,0.4,0.1,0.6,0.1l1.1,0.1L214,183.1z M253.7,183l-0.1-0.5
					c0.6-0.1,1.1-0.3,1.7-0.4l0.1,0.5C254.8,182.7,254.3,182.8,253.7,183z M210.5,182.7c-0.5-0.1-1-0.2-1.6-0.2l0.1-0.5
					c0.5,0.1,1,0.2,1.5,0.2L210.5,182.7z M257.1,182l-0.2-0.5c0.5-0.2,1.1-0.4,1.6-0.6l0.2,0.5C258.2,181.7,257.6,181.8,257.1,182z
					 M260.4,180.9l-0.2-0.5c0.5-0.2,1.1-0.4,1.6-0.7l0.2,0.5C261.4,180.4,260.9,180.6,260.4,180.9z M263.5,179.4l-0.2-0.4
					c0.5-0.3,1-0.5,1.5-0.8l0.2,0.4C264.6,178.9,264.1,179.2,263.5,179.4z M266.6,177.8l-0.3-0.4c0.5-0.3,1-0.6,1.4-0.9l0.3,0.4
					C267.6,177.1,267.1,177.5,266.6,177.8z M269.5,175.8l-0.3-0.4c0.4-0.4,0.9-0.7,1.3-1.1l0.3,0.4
					C270.4,175,269.9,175.4,269.5,175.8z M272.1,173.5l-0.3-0.4c0.4-0.4,0.8-0.8,1.2-1.2l0.4,0.3
					C272.9,172.6,272.5,173.1,272.1,173.5z M126.2,171.7c-0.2-0.5-0.3-1.1-0.5-1.6l0.5-0.2c0.2,0.5,0.4,1.1,0.5,1.7L126.2,171.7z
					 M274.5,170.9l-0.4-0.3c0.4-0.4,0.7-0.9,1.1-1.3l0.4,0.3C275.2,170,274.9,170.5,274.5,170.9z M125.1,168.5
					c-0.2-0.5-0.5-1-0.7-1.6l0.4-0.2c0.3,0.5,0.5,1,0.7,1.6L125.1,168.5z M276.6,168.1l-0.4-0.3c0.3-0.5,0.6-1,0.9-1.4l0.4,0.3
					C277.2,167.2,276.9,167.7,276.6,168.1z M66.5,167.5l-0.1,0l0-0.5l0.1,0c0.5,0,1,0,1.6-0.1l0,0.5
					C67.6,167.5,67.1,167.5,66.5,167.5z M64.7,167.5c-0.3,0-0.6-0.1-0.9-0.1c-0.3,0-0.6-0.1-0.9-0.1l0.1-0.5
					c0.3,0.1,0.6,0.1,0.8,0.1c0.3,0,0.6,0.1,0.9,0.1L64.7,167.5z M69.9,167.3l-0.1-0.5c0.6-0.1,1.1-0.2,1.7-0.3l0.1,0.5
					C71,167.1,70.5,167.2,69.9,167.3z M61.2,166.8c-0.6-0.2-1.1-0.3-1.7-0.5l0.2-0.5c0.5,0.2,1.1,0.4,1.6,0.5L61.2,166.8z
					 M73.3,166.5l-0.1-0.5c0.5-0.2,1.1-0.3,1.6-0.5L75,166C74.4,166.2,73.9,166.3,73.3,166.5z M57.9,165.6c-0.5-0.3-1.1-0.5-1.6-0.8
					l0.3-0.4c0.5,0.3,1,0.6,1.5,0.8L57.9,165.6z M123.5,165.4c-0.3-0.5-0.6-1-0.9-1.4l0.4-0.3c0.3,0.5,0.7,1,1,1.5L123.5,165.4z
					 M76.6,165.4l-0.2-0.5c0.5-0.2,1.1-0.4,1.6-0.7l0.2,0.5C77.7,164.9,77.2,165.1,76.6,165.4z M278.4,165.2l-0.4-0.2
					c0.3-0.5,0.5-1,0.8-1.5l0.4,0.2C279,164.1,278.7,164.7,278.4,165.2z M79.8,163.9l-0.2-0.4c0.5-0.3,1-0.5,1.5-0.8l0.2,0.4
					C80.9,163.4,80.3,163.7,79.8,163.9z M54.9,163.8c-0.5-0.4-0.9-0.8-1.3-1.2l0.3-0.4c0.4,0.4,0.8,0.8,1.3,1.1L54.9,163.8z
					 M121.5,162.6c-0.4-0.4-0.7-0.9-1.1-1.3l0.4-0.3c0.4,0.4,0.8,0.9,1.1,1.3L121.5,162.6z M82.9,162.4l-0.2-0.4
					c0.5-0.3,1-0.6,1.5-0.8l0.2,0.4C83.9,161.8,83.4,162.1,82.9,162.4z M280,162l-0.5-0.2c0.2-0.5,0.5-1.1,0.7-1.6l0.5,0.2
					C280.5,161,280.2,161.5,280,162z M52.4,161.3c-0.4-0.5-0.7-1-0.9-1.5l0.4-0.2c0.3,0.5,0.6,1,0.9,1.4L52.4,161.3z M85.9,160.7
					l-0.2-0.4c0.5-0.3,1-0.6,1.5-0.9l0.2,0.4C87,160.1,86.4,160.4,85.9,160.7z M119.2,160.1c-0.4-0.4-0.9-0.8-1.3-1.1l0.3-0.4
					c0.5,0.4,0.9,0.7,1.3,1.1L119.2,160.1z M89,158.9l-0.2-0.4c0.5-0.3,1-0.5,1.5-0.8l0.2,0.4C90,158.4,89.5,158.7,89,158.9z
					 M281.3,158.8l-0.5-0.2c0.2-0.5,0.4-1.1,0.5-1.6l0.5,0.1C281.6,157.7,281.4,158.2,281.3,158.8z M50.8,158.2
					c-0.1-0.4-0.2-0.7-0.3-1.1c0-0.2-0.1-0.4-0.1-0.6l0.5-0.1c0,0.2,0.1,0.4,0.1,0.6c0.1,0.4,0.2,0.7,0.3,1L50.8,158.2z M116.5,158
					c-0.5-0.3-1-0.6-1.5-0.9l0.2-0.4c0.5,0.3,1,0.6,1.5,0.9L116.5,158z M92,157.4l-0.2-0.4c0.5-0.3,1.1-0.5,1.6-0.7l0.2,0.5
					C93.1,156.9,92.6,157.1,92,157.4z M113.6,156.2c-0.5-0.2-1-0.5-1.6-0.7l0.2-0.5c0.5,0.2,1.1,0.4,1.6,0.7L113.6,156.2z M95.2,156
					l-0.2-0.5c0.6-0.2,1.1-0.4,1.7-0.6l0.2,0.5C96.3,155.6,95.8,155.8,95.2,156z M282.2,155.4l-0.5-0.1c0.1-0.6,0.3-1.1,0.4-1.7
					l0.5,0.1C282.5,154.3,282.4,154.9,282.2,155.4z M110.4,155c-0.5-0.2-1.1-0.3-1.7-0.4l0.1-0.5c0.6,0.1,1.1,0.3,1.7,0.4L110.4,155
					z M98.5,155l-0.1-0.5c0.6-0.1,1.1-0.3,1.7-0.4l0.1,0.5C99.6,154.7,99.1,154.8,98.5,155z M50.8,154.7l-0.5,0
					c0-0.6,0.1-1.2,0.2-1.8L51,153C50.9,153.6,50.8,154.1,50.8,154.7z M107,154.4c-0.6-0.1-1.1-0.1-1.7-0.1l0-0.5
					c0.6,0,1.2,0.1,1.7,0.1L107,154.4z M101.9,154.4l-0.1-0.5c0.6-0.1,1.2-0.1,1.7-0.1l0,0.5C103,154.2,102.4,154.3,101.9,154.4z
					 M282.9,152l-0.5-0.1c0.1-0.6,0.2-1.1,0.2-1.7l0.5,0.1C283.1,150.8,283,151.4,282.9,152z M51.5,151.4l-0.5-0.2
					c0.2-0.5,0.5-1.1,0.8-1.6l0.4,0.3C52,150.4,51.7,150.9,51.5,151.4z M53.3,148.6l-0.4-0.3c0.4-0.4,0.8-0.9,1.2-1.3l0.3,0.4
					C54.1,147.7,53.7,148.2,53.3,148.6z M283.3,148.5l-0.5,0c0-0.6,0.1-1.1,0.1-1.7l0.5,0C283.3,147.4,283.3,148,283.3,148.5z
					 M55.8,146.2l-0.3-0.4c0.5-0.3,0.9-0.7,1.4-1l0.3,0.4C56.7,145.6,56.3,145.9,55.8,146.2z M282.8,145.1c0-0.6-0.1-1.1-0.1-1.7
					l0.5,0c0.1,0.6,0.1,1.2,0.1,1.7L282.8,145.1z M58.7,144.4l-0.2-0.4c0.5-0.3,1-0.5,1.6-0.8l0.2,0.4
					C59.7,143.8,59.2,144.1,58.7,144.4z M61.8,142.8l-0.2-0.4c0.5-0.3,1-0.5,1.5-0.9l0.3,0.4C62.8,142.3,62.3,142.5,61.8,142.8z
					 M282.5,141.6c-0.1-0.6-0.2-1.1-0.3-1.7l0.5-0.1c0.1,0.6,0.2,1.2,0.3,1.7L282.5,141.6z M64.8,141l-0.3-0.4
					c0.5-0.3,0.9-0.7,1.4-1l0.3,0.4C65.7,140.3,65.3,140.7,64.8,141z M67.6,138.9l-0.3-0.4c0.4-0.4,0.9-0.7,1.3-1.1l0.3,0.4
					C68.5,138.2,68,138.5,67.6,138.9z M281.9,138.3c-0.1-0.6-0.3-1.1-0.5-1.7l0.5-0.1c0.2,0.6,0.3,1.1,0.5,1.7L281.9,138.3z
					 M70.2,136.6l-0.4-0.4c0.4-0.4,0.8-0.8,1.2-1.3l0.4,0.3C71,135.7,70.6,136.1,70.2,136.6z M280.8,135c-0.2-0.5-0.4-1.1-0.7-1.6
					l0.5-0.2c0.2,0.5,0.5,1.1,0.7,1.6L280.8,135z M72.5,133.9l-0.4-0.3c0.4-0.5,0.7-0.9,1-1.4l0.4,0.3
					C73.2,133,72.9,133.5,72.5,133.9z M279.4,131.8c-0.3-0.5-0.5-1-0.8-1.5l0.4-0.3c0.3,0.5,0.6,1,0.9,1.5L279.4,131.8z M74.4,131
					l-0.4-0.2c0.1-0.2,0.2-0.4,0.3-0.6c0.1-0.3,0.3-0.6,0.4-1l0.5,0.2c-0.1,0.3-0.2,0.7-0.4,1C74.6,130.5,74.5,130.7,74.4,131z
					 M277.7,128.9c-0.3-0.5-0.7-0.9-1-1.4l0.4-0.3c0.4,0.5,0.7,0.9,1,1.4L277.7,128.9z M75.6,127.7l-0.5-0.1
					c0.2-0.5,0.3-1.1,0.4-1.7L76,126C75.9,126.5,75.7,127.1,75.6,127.7z M275.6,126.2c-0.4-0.4-0.8-0.8-1.2-1.2l0.3-0.4
					c0.4,0.4,0.8,0.8,1.2,1.3L275.6,126.2z M76.3,124.3l-0.5-0.1c0.1-0.6,0.1-1.1,0.2-1.7l0.5,0C76.5,123.1,76.4,123.7,76.3,124.3z
					 M273.1,123.8c-0.2-0.2-0.5-0.4-0.7-0.6c-0.2-0.2-0.4-0.3-0.6-0.5l0.3-0.4c0.2,0.2,0.4,0.3,0.7,0.5c0.2,0.2,0.5,0.4,0.7,0.6
					L273.1,123.8z M270.4,121.6c-0.5-0.3-0.9-0.6-1.4-1l0.3-0.4c0.5,0.3,1,0.7,1.4,1L270.4,121.6z M76.6,120.8l-0.5,0l0-0.4
					c0-0.5,0-0.9,0-1.4l0.5,0c0,0.5,0,0.9,0,1.4L76.6,120.8z M267.5,119.7c-0.5-0.3-1-0.6-1.5-0.9l0.3-0.4c0.5,0.3,1,0.6,1.5,0.9
					L267.5,119.7z M264.5,118l-0.1-0.1c-0.5-0.3-0.9-0.5-1.4-0.8l0.2-0.4c0.5,0.3,0.9,0.5,1.4,0.8l0.1,0.1L264.5,118z M75.9,117.3
					c-0.1-0.6-0.1-1.1-0.2-1.7l0.5-0.1c0.1,0.6,0.2,1.2,0.2,1.7L75.9,117.3z M261.5,116.2c-0.5-0.3-1-0.6-1.5-0.9l0.3-0.4
					c0.5,0.3,1,0.6,1.5,0.9L261.5,116.2z M258.6,114.3c-0.5-0.3-1-0.7-1.4-1l0.3-0.4c0.4,0.3,0.9,0.7,1.4,1L258.6,114.3z
					 M75.5,113.9c-0.1-0.6-0.2-1.1-0.3-1.7l0.5-0.1c0.1,0.6,0.2,1.1,0.3,1.7L75.5,113.9z M255.9,112.2c-0.4-0.4-0.9-0.8-1.3-1.2
					l0.3-0.4c0.4,0.4,0.8,0.8,1.3,1.2L255.9,112.2z M74.7,110.5c-0.1-0.6-0.3-1.1-0.4-1.7l0.5-0.1c0.2,0.6,0.3,1.1,0.4,1.7
					L74.7,110.5z M253.4,109.7c-0.4-0.4-0.8-0.9-1.1-1.4l0.4-0.3c0.3,0.5,0.7,0.9,1.1,1.3L253.4,109.7z M73.8,107.2
					c-0.2-0.6-0.3-1.1-0.5-1.7l0.5-0.2c0.2,0.6,0.3,1.1,0.5,1.7L73.8,107.2z M251.3,106.9c-0.3-0.5-0.6-1-0.9-1.5l0.4-0.3
					c0.3,0.5,0.6,1,0.9,1.4L251.3,106.9z M249.4,104c-0.3-0.5-0.6-1-0.9-1.5l0.4-0.2c0.3,0.5,0.6,1,0.9,1.5L249.4,104z M72.8,103.9
					c-0.2-0.5-0.4-1.1-0.6-1.6l0.5-0.2c0.2,0.5,0.4,1.1,0.6,1.6L72.8,103.9z M247.7,100.9c-0.3-0.5-0.5-1-0.8-1.6l0.4-0.2
					c0.2,0.5,0.5,1,0.8,1.5L247.7,100.9z M71.6,100.6c-0.2-0.5-0.4-1.1-0.6-1.6l0.5-0.2c0.2,0.5,0.4,1.1,0.6,1.6L71.6,100.6z
					 M246.2,97.8c-0.2-0.5-0.5-1.1-0.7-1.6L246,96c0.2,0.5,0.4,1.1,0.7,1.6L246.2,97.8z M70.5,97.4l-0.6-1.6l0.5-0.2l0.6,1.6
					L70.5,97.4z M245,94.6c-0.2-0.6-0.4-1.1-0.6-1.6l0.5-0.2c0.2,0.5,0.4,1.1,0.6,1.6L245,94.6z M69.3,94.1
					c-0.2-0.5-0.4-1.1-0.6-1.6l0.5-0.2c0.2,0.5,0.4,1.1,0.6,1.6L69.3,94.1z M243.9,91.3c-0.2-0.6-0.3-1.1-0.5-1.7l0.5-0.1
					c0.2,0.5,0.3,1.1,0.5,1.7L243.9,91.3z M68.1,90.8c-0.2-0.5-0.4-1.1-0.6-1.7l0.5-0.2c0.2,0.5,0.4,1.1,0.5,1.6L68.1,90.8z
					 M242.9,87.9c-0.1-0.6-0.3-1.1-0.4-1.7l0.5-0.1c0.1,0.6,0.3,1.1,0.4,1.7L242.9,87.9z M67.1,87.5c-0.2-0.6-0.3-1.1-0.5-1.7
					l0.5-0.1c0.2,0.6,0.3,1.1,0.5,1.7L67.1,87.5z M242.1,84.5c-0.1-0.6-0.3-1.1-0.4-1.7l0.5-0.1c0.1,0.6,0.2,1.1,0.4,1.7L242.1,84.5
					z M66.1,84.2c-0.2-0.6-0.3-1.1-0.4-1.7l0.5-0.1c0.1,0.6,0.3,1.1,0.4,1.7L66.1,84.2z M241.4,81.1c-0.1-0.6-0.3-1.1-0.4-1.7
					l0.5-0.1c0.1,0.6,0.3,1.1,0.4,1.7L241.4,81.1z M65.2,80.8c-0.1-0.6-0.2-1.1-0.3-1.7l0.5-0.1c0.1,0.6,0.2,1.1,0.3,1.7L65.2,80.8z
					 M240.6,77.8c-0.1-0.6-0.3-1.1-0.4-1.7l0.5-0.1c0.2,0.6,0.3,1.1,0.4,1.7L240.6,77.8z M64.6,77.3c-0.1-0.6-0.2-1.2-0.2-1.7
					l0.5-0.1c0.1,0.6,0.1,1.1,0.2,1.7L64.6,77.3z M239.7,74.4c-0.2-0.6-0.3-1.1-0.5-1.6l0.5-0.2c0.2,0.5,0.4,1.1,0.5,1.7L239.7,74.4
					z M64.2,73.9c0-0.6-0.1-1.2-0.1-1.7l0.5,0c0,0.6,0,1.1,0.1,1.7L64.2,73.9z M147.2,72.6c-0.6,0-1.2,0-1.8-0.1l0-0.5
					c0.5,0,1.1,0.1,1.7,0.1L147.2,72.6z M149,72.5l0-0.5c0.6,0,1.1-0.1,1.7-0.2l0.1,0.5C150.1,72.4,149.6,72.4,149,72.5z
					 M143.7,72.2c-0.6-0.1-1.2-0.2-1.7-0.4l0.1-0.5c0.5,0.2,1.1,0.3,1.7,0.4L143.7,72.2z M152.5,72l-0.1-0.5
					c0.6-0.1,1.1-0.3,1.7-0.4l0.1,0.5C153.6,71.7,153,71.9,152.5,72z M140.4,71.2c-0.5-0.2-1.1-0.5-1.6-0.8L139,70
					c0.5,0.3,1,0.5,1.5,0.8L140.4,71.2z M238.6,71.2c-0.2-0.5-0.4-1.1-0.7-1.6l0.5-0.2c0.2,0.5,0.5,1.1,0.7,1.6L238.6,71.2z
					 M155.8,71.1l-0.2-0.5c0.5-0.2,1.1-0.4,1.6-0.6l0.2,0.5C156.9,70.7,156.4,70.9,155.8,71.1z M64.6,70.4l-0.5,0
					c0-0.6,0-1.2,0.1-1.7l0.5,0C64.7,69.2,64.7,69.8,64.6,70.4z M159.1,69.9l-0.2-0.5c0.6-0.2,1.1-0.4,1.6-0.7l0.2,0.5
					C160.2,69.4,159.7,69.7,159.1,69.9z M137.3,69.5c-0.5-0.3-0.9-0.7-1.3-1.1l0.3-0.4c0.4,0.4,0.9,0.8,1.3,1.1L137.3,69.5z
					 M162.3,68.6l-0.2-0.5c0.5-0.2,1.1-0.5,1.6-0.7l0.2,0.5C163.4,68.1,162.9,68.3,162.3,68.6z M237.2,68c-0.3-0.5-0.5-1-0.8-1.5
					l0.4-0.2c0.3,0.5,0.6,1,0.8,1.5L237.2,68z M165.5,67.1l-0.2-0.4c0.5-0.2,1.1-0.5,1.6-0.7l0.2,0.4
					C166.6,66.6,166,66.9,165.5,67.1z M134.8,67c-0.4-0.4-0.7-0.9-1.1-1.4l0.4-0.3c0.4,0.5,0.7,0.9,1.1,1.3L134.8,67z M64.9,67
					l-0.5-0.1c0.1-0.6,0.2-1.2,0.3-1.7l0.5,0.1C65.1,65.8,65,66.4,64.9,67z M168.6,65.6l-0.2-0.4c0.5-0.3,1-0.5,1.5-0.8l0.2,0.4
					C169.7,65.1,169.1,65.4,168.6,65.6z M235.4,65.1c-0.3-0.5-0.7-0.9-1-1.4l0.4-0.3c0.4,0.5,0.7,0.9,1,1.4L235.4,65.1z M132.7,64.2
					c-0.3-0.5-0.6-1-0.9-1.5l0.4-0.3c0.3,0.5,0.6,1,0.9,1.5L132.7,64.2z M171.7,64l-0.2-0.4c0.5-0.3,1-0.5,1.5-0.8l0.2,0.4
					C172.7,63.5,172.2,63.8,171.7,64z M65.5,63.6l-0.5-0.1c0.1-0.4,0.2-0.9,0.4-1.3c0-0.1,0.1-0.2,0.1-0.4l0.5,0.1
					c0,0.1-0.1,0.2-0.1,0.4C65.8,62.7,65.6,63.1,65.5,63.6z M174.8,62.4l-0.2-0.4c0.5-0.3,1-0.5,1.5-0.8l0.2,0.4
					C175.8,61.9,175.3,62.1,174.8,62.4z M233.3,62.4c-0.4-0.4-0.8-0.8-1.2-1.2l0.3-0.4c0.4,0.4,0.8,0.8,1.2,1.2L233.3,62.4z
					 M130.9,61.2l-0.9-1.5l0.4-0.2l0.9,1.5L130.9,61.2z M177.8,60.8l-0.2-0.4c0.5-0.3,1-0.5,1.5-0.8l0.2,0.4
					C178.8,60.3,178.3,60.5,177.8,60.8z M66.5,60.3l-0.5-0.2c0.2-0.5,0.4-1.1,0.6-1.6l0.5,0.2C67,59.2,66.7,59.8,66.5,60.3z
					 M230.8,60c-0.4-0.4-0.9-0.7-1.3-1.1l0.3-0.4c0.5,0.4,0.9,0.7,1.4,1.1L230.8,60z M180.9,59.2l-0.2-0.4c0.5-0.2,1-0.5,1.6-0.8
					l0.2,0.4C181.9,58.7,181.4,59,180.9,59.2z M129.2,58.2c-0.3-0.5-0.6-1-0.9-1.5l0.4-0.3c0.3,0.4,0.6,0.9,0.9,1.5L129.2,58.2z
					 M228,57.9c-0.5-0.3-1-0.6-1.4-0.9l0.3-0.4c0.5,0.3,1,0.6,1.5,1L228,57.9z M184,57.7l-0.2-0.4c0.5-0.2,1-0.5,1.6-0.7l0.2,0.5
					C185.1,57.2,184.5,57.5,184,57.7z M67.9,57.1l-0.4-0.2c0.3-0.5,0.5-1,0.8-1.5l0.4,0.2C68.4,56.1,68.2,56.6,67.9,57.1z
					 M187.2,56.3l-0.2-0.5c0.5-0.2,1.1-0.5,1.6-0.7l0.2,0.5C188.2,55.9,187.7,56.1,187.2,56.3z M225.1,56.1c-0.5-0.3-1-0.6-1.5-0.8
					l0.2-0.4c0.5,0.3,1,0.5,1.5,0.8L225.1,56.1z M127.3,55.4c-0.3-0.4-0.7-0.9-1.1-1.4l0.4-0.3c0.4,0.5,0.7,0.9,1.1,1.4L127.3,55.4z
					 M190.4,55l-0.2-0.5c0.5-0.2,1.1-0.4,1.6-0.6l0.2,0.5C191.4,54.6,190.9,54.8,190.4,55z M222,54.5c-0.5-0.2-1-0.5-1.6-0.7
					l0.2-0.5c0.5,0.2,1.1,0.5,1.6,0.7L222,54.5z M69.6,54.2l-0.4-0.3c0.3-0.5,0.7-1,1-1.4l0.4,0.3C70.3,53.2,69.9,53.7,69.6,54.2z
					 M193.6,53.8l-0.2-0.5c0.5-0.2,1.1-0.4,1.7-0.5l0.1,0.5C194.7,53.4,194.2,53.6,193.6,53.8z M218.9,53.2
					c-0.5-0.2-1.1-0.4-1.6-0.6l0.2-0.5c0.5,0.2,1.1,0.4,1.6,0.6L218.9,53.2z M196.9,52.8l-0.1-0.5c0.6-0.2,1.1-0.3,1.7-0.4l0.1,0.5
					C198,52.5,197.5,52.6,196.9,52.8z M125.1,52.7c-0.4-0.4-0.8-0.9-1.2-1.3l0.4-0.3c0.4,0.4,0.8,0.9,1.2,1.3L125.1,52.7z
					 M215.6,52.1c-0.5-0.2-1.1-0.3-1.7-0.4l0.1-0.5c0.6,0.1,1.1,0.3,1.7,0.4L215.6,52.1z M200.3,51.9l-0.1-0.5
					c0.6-0.1,1.2-0.2,1.7-0.3l0.1,0.5C201.4,51.7,200.8,51.8,200.3,51.9z M71.7,51.4l-0.4-0.3c0.4-0.4,0.8-0.9,1.2-1.3l0.4,0.3
					C72.5,50.6,72.1,51,71.7,51.4z M203.7,51.4l-0.1-0.5c0.6-0.1,1.2-0.1,1.7-0.2l0,0.5C204.8,51.2,204.2,51.3,203.7,51.4z
					 M212.3,51.3c-0.6-0.1-1.1-0.1-1.7-0.2l0-0.5c0.6,0,1.2,0.1,1.7,0.2L212.3,51.3z M207.1,51.1l0-0.5c0.6,0,1.2,0,1.7,0l0,0.5
					C208.2,51.1,207.7,51.1,207.1,51.1z M122.7,50.2c-0.4-0.4-0.8-0.8-1.3-1.2l0.3-0.4c0.4,0.4,0.9,0.8,1.3,1.2L122.7,50.2z
					 M74.1,48.9l-0.3-0.4c0.4-0.4,0.9-0.8,1.3-1.2l0.3,0.4C74.9,48.2,74.5,48.5,74.1,48.9z M120.2,47.9c-0.4-0.4-0.9-0.7-1.4-1
					l0.3-0.4c0.5,0.3,0.9,0.7,1.4,1.1L120.2,47.9z M76.7,46.7l-0.3-0.4c0.5-0.3,0.9-0.7,1.4-1l0.3,0.4
					C77.7,46.1,77.2,46.4,76.7,46.7z M117.4,45.9c-0.5-0.3-1-0.6-1.5-0.9l0.2-0.4c0.5,0.3,1,0.6,1.5,0.9L117.4,45.9z M79.6,44.9
					l-0.2-0.4c0.5-0.3,1-0.6,1.5-0.8l0.2,0.4C80.6,44.3,80.1,44.6,79.6,44.9z M114.4,44.2c-0.5-0.3-1-0.5-1.6-0.7L113,43
					c0.5,0.2,1.1,0.5,1.6,0.7L114.4,44.2z M82.7,43.3l-0.2-0.5c0.5-0.2,1.1-0.5,1.6-0.7l0.2,0.5C83.7,42.9,83.2,43.1,82.7,43.3z
					 M111.2,42.8c-0.5-0.2-1.1-0.4-1.6-0.6l0.2-0.5c0.5,0.2,1.1,0.4,1.6,0.6L111.2,42.8z M85.9,42.1l-0.2-0.5
					c0.5-0.2,1.1-0.3,1.7-0.5l0.1,0.5C87,41.7,86.4,41.9,85.9,42.1z M108,41.7c-0.5-0.2-1.1-0.3-1.7-0.4l0.1-0.5
					c0.6,0.1,1.1,0.3,1.7,0.4L108,41.7z M89.2,41.2l-0.1-0.5c0.6-0.1,1.1-0.2,1.7-0.3l0.1,0.5C90.3,40.9,89.8,41,89.2,41.2z
					 M104.6,40.9c-0.6-0.1-1.1-0.2-1.7-0.3l0.1-0.5c0.6,0.1,1.2,0.2,1.7,0.3L104.6,40.9z M92.6,40.6l-0.1-0.5
					c0.6-0.1,1.2-0.1,1.7-0.2l0,0.5C93.7,40.4,93.2,40.5,92.6,40.6z M101.2,40.4c-0.6-0.1-1.1-0.1-1.7-0.1l0-0.5
					c0.6,0,1.2,0.1,1.7,0.1L101.2,40.4z M96,40.3l0-0.5c0.5,0,1,0,1.5,0l0.2,0l0,0.5l-0.2,0C97,40.2,96.5,40.3,96,40.3z"/>
			</g>
			<g>
				<path class="st1" d="M251.1,59.3c1.5-1.7,2.8-3.6,3.9-5.7c1.1-2.1,1.9-4.2,2.5-6.4l-5.8-2.1c0.4-2,0.6-4.1,0.5-6.1l6.1-0.9
					c-0.3-4.6-1.7-9-4-13l-5.6,2.7c-1.1-1.7-2.4-3.3-3.9-4.7l3.7-5c-1.7-1.5-3.6-2.8-5.7-3.9s-4.2-1.9-6.4-2.5l-2.1,5.8
					c-2-0.4-4.1-0.6-6.1-0.5l-0.9-6.1c-4.6,0.3-9,1.7-13,4l2.7,5.6c-1.7,1.1-3.3,2.4-4.7,3.9l-5-3.7c-1.5,1.7-2.8,3.6-3.9,5.7
					c-1.1,2.1-1.9,4.2-2.5,6.4l5.8,2.1c-0.4,2-0.6,4.1-0.5,6.1L200,42c0.3,4.6,1.7,9,4,13l5.6-2.7c1.1,1.7,2.4,3.3,3.9,4.7l-3.7,5
					c1.7,1.5,3.6,2.8,5.7,3.9c2.1,1.1,4.2,1.9,6.4,2.5l2.1-5.8c2,0.4,4.1,0.6,6.1,0.5l0.9,6.1c4.6-0.3,9-1.7,13-4l-2.7-5.6
					c1.7-1.1,3.3-2.4,4.7-3.9L251.1,59.3z M222.3,52.9c-7.1-3.8-9.9-12.6-6.1-19.7s12.6-9.9,19.7-6.1c7.1,3.8,9.9,12.6,6.1,19.7
					C238.3,54,229.5,56.7,222.3,52.9z M224.3,49.2c-5.1-2.7-7-8.9-4.3-14s8.9-7,14-4.3s7,8.9,4.3,14C235.7,50,229.4,51.9,224.3,49.2
					z"/>
			</g>
			<g>
				<path class="st1" d="M117.9,73.4c0.8-1.1,1.5-2.4,2-3.7c0.5-1.3,0.9-2.7,1.1-4.1l-3.7-0.9c0.1-1.3,0.1-2.5,0-3.8l3.7-1
					c-0.4-2.8-1.6-5.5-3.3-7.7l-3.3,2c-0.7-1-1.7-1.9-2.7-2.7l1.9-3.3c-1.1-0.8-2.4-1.5-3.7-2c-1.3-0.5-2.7-0.9-4.1-1.1l-0.9,3.7
					c-1.3-0.1-2.5-0.1-3.8,0l-1-3.7c-2.8,0.4-5.5,1.6-7.7,3.3l2,3.3c-1,0.7-1.9,1.7-2.7,2.7l-3.3-1.9c-0.8,1.1-1.5,2.4-2,3.7
					c-0.5,1.3-0.9,2.7-1.1,4.1l3.7,0.9c-0.1,1.3-0.1,2.5,0,3.8l-3.7,1c0.4,2.8,1.6,5.5,3.3,7.7l3.3-2c0.7,1,1.7,1.9,2.7,2.7
					l-1.9,3.3c1.1,0.8,2.4,1.5,3.7,2s2.7,0.9,4.1,1.1l0.9-3.7c1.3,0.1,2.5,0.1,3.8,0l1,3.7c2.8-0.4,5.5-1.6,7.7-3.3l-2-3.3
					c1-0.7,1.9-1.7,2.7-2.7L117.9,73.4z M99.8,71.3c-4.6-1.9-6.8-7.1-5-11.7c1.9-4.6,7.1-6.8,11.7-5c4.6,1.9,6.8,7.1,5,11.7
					C109.7,70.9,104.5,73.2,99.8,71.3z M100.8,68.9c-3.3-1.3-4.9-5.1-3.5-8.4c1.3-3.3,5.1-4.9,8.4-3.5c3.3,1.3,4.9,5.1,3.5,8.4
					C107.8,68.6,104.1,70.2,100.8,68.9z"/>
			</g>
			<g>
				<path class="st1" d="M132.8,39.1c0.6-0.7,1.2-1.5,1.7-2.4s0.8-1.8,1.1-2.8L133,33c0.2-0.9,0.3-1.8,0.2-2.6l2.7-0.4
					c-0.1-2-0.7-3.9-1.7-5.6l-2.4,1.1c-0.4-0.7-1-1.4-1.7-2l1.6-2.2c-0.7-0.6-1.5-1.2-2.4-1.7c-0.9-0.5-1.8-0.8-2.8-1.1l-0.9,2.5
					c-0.9-0.2-1.8-0.3-2.6-0.2l-0.4-2.7c-2,0.1-3.9,0.7-5.6,1.7l1.1,2.4c-0.7,0.4-1.4,1-2,1.7l-2.2-1.6c-0.6,0.7-1.2,1.5-1.7,2.4
					c-0.5,0.9-0.8,1.8-1.1,2.8l2.5,0.9c-0.2,0.9-0.3,1.8-0.2,2.6l-2.7,0.4c0.1,2,0.7,3.9,1.7,5.6l2.4-1.1c0.4,0.7,1,1.4,1.7,2
					l-1.6,2.2c0.7,0.6,1.5,1.2,2.4,1.7c0.9,0.5,1.8,0.8,2.8,1.1l0.9-2.5c0.9,0.2,1.8,0.3,2.6,0.2l0.4,2.7c2-0.1,3.9-0.7,5.6-1.7
					l-1.1-2.4c0.7-0.4,1.4-1,2-1.7L132.8,39.1z M121.2,34.7c-2.2-1.2-3.1-3.9-1.9-6.1s3.9-3.1,6.1-1.9c2.2,1.2,3.1,3.9,1.9,6.1
					C126.1,35.1,123.4,35.9,121.2,34.7z"/>
			</g>
			<g>
				<path class="st2" d="M72.9,78.6c0-0.3,0-0.7-0.1-1c-0.3-3.1-2.4-2.8-3.8-2.7c-1.3,0.1-2.9,0.1-3.6-1.3c-0.3-0.6-0.2-1.4-0.4-2
					c-0.4-1.5-1.7-2.4-3-2.4c-1.3,0-2.5,0.7-3.5,1.6c-0.5,0.4-1.1,1-1.8,0.8c-0.4-0.1-0.7-0.5-1-0.9c-1.5-2.4-1.5-6-3.1-8.3
					c-1.8-2.5-5.2-2.6-7.5-0.7c-2.3,1.8-3.6,5.1-4.2,8.4c-0.2,1.1-0.3,2.2-1,3c-0.9,1-2.4,0.7-3.7,0.5c-1.5-0.1-3,0.1-4.2,1.1
					c-1,0.9-1.6,2.4-1.5,3.9H72.9z"/>
				<path class="st0" d="M72.9,78.8H30.5c-0.1,0-0.2-0.1-0.2-0.2c-0.1-1.5,0.5-3.1,1.6-4.1c1.1-1,2.6-1.4,4.4-1.2
					c0.2,0,0.3,0,0.5,0.1c1.2,0.2,2.2,0.3,3-0.5c0.6-0.6,0.8-1.6,0.9-2.6l0.1-0.3c0.7-3.9,2.2-6.9,4.3-8.6c1.3-1,2.9-1.5,4.4-1.3
					c1.4,0.2,2.6,0.9,3.4,2.1c0.9,1.2,1.3,2.8,1.7,4.4c0.4,1.4,0.7,2.8,1.4,3.9c0.3,0.5,0.6,0.8,0.8,0.8c0.5,0.1,0.9-0.3,1.4-0.6
					l0.2-0.2c1.3-1.2,2.5-1.7,3.7-1.7c1.3,0,2.8,0.9,3.2,2.6c0.1,0.3,0.1,0.6,0.2,0.9c0.1,0.4,0.1,0.8,0.3,1.1
					c0.6,1.3,2,1.3,3.3,1.1l0.3,0c1.4-0.1,3.4-0.2,3.8,3c0,0.3,0.1,0.7,0.1,1.1C73.1,78.7,73,78.8,72.9,78.8z M30.7,78.3h41.9
					c0-0.2-0.1-0.5-0.1-0.8c-0.3-2.7-1.9-2.6-3.3-2.5l-0.3,0c-1.1,0.1-3.1,0.2-3.8-1.4c-0.2-0.4-0.2-0.8-0.3-1.2
					c0-0.3-0.1-0.6-0.2-0.8c-0.4-1.5-1.7-2.2-2.7-2.2c-1,0-2.1,0.5-3.4,1.6l-0.2,0.2c-0.5,0.4-1.1,0.9-1.8,0.7
					c-0.6-0.1-0.9-0.7-1.1-1.1c-0.7-1.2-1.1-2.6-1.5-4c-0.4-1.5-0.8-3.1-1.6-4.2c-0.8-1.1-1.8-1.7-3.1-1.9c-1.4-0.2-2.9,0.2-4,1.2
					c-2,1.6-3.5,4.5-4.1,8.3l-0.1,0.3c-0.2,1-0.4,2.1-1.1,2.8c-0.9,1-2.2,0.8-3.4,0.7c-0.2,0-0.3,0-0.5-0.1c-1.7-0.2-3,0.2-4,1.1
					C31.3,75.7,30.7,77,30.7,78.3z"/>
			</g>
			<g>
				<path class="st2" d="M157.8,25.3h41.7c0,0-1.7-1.9-3.6-2.6c-2.4-0.8-3.4,1.5-4.9-1.5c-0.8-1.7-1.4-3.9-3.7-4.5
					c-3.5-0.9-4.4,2-6,1.2c-1.4-0.7-1.4-3.4-2.9-5.7c-1.4-2.2-4.9-3.6-7.3-2.4c-4.4,2.1-3.8,5.5-5.2,6.6c-1.4,1.1-4.6-2.8-8.2,1.4
					C155.3,20.6,157.8,25.3,157.8,25.3z"/>
				<path class="st0" d="M199.5,25.5h-41.7c-0.1,0-0.2-0.1-0.2-0.1c-0.1-0.2-2.5-4.9,0.1-7.9c2.5-2.8,4.8-2.1,6.4-1.6
					c0.8,0.3,1.5,0.5,1.8,0.2c0.4-0.3,0.7-0.9,1-1.7c0.6-1.5,1.3-3.5,4.3-4.9c2.6-1.3,6.2,0.3,7.6,2.5c0.7,1,1,2.1,1.4,3.1
					c0.4,1.2,0.7,2.2,1.4,2.5c0.6,0.3,1,0,1.8-0.4c0.9-0.6,2.1-1.3,4.2-0.8c2,0.5,2.7,2.2,3.4,3.7c0.1,0.3,0.3,0.6,0.4,0.9
					c0.8,1.7,1.4,1.6,2.3,1.4c0.6-0.1,1.4-0.3,2.4,0.1c1.9,0.7,3.6,2.6,3.7,2.7c0.1,0.1,0.1,0.2,0,0.3S199.6,25.5,199.5,25.5z
					 M157.9,25h41c-0.6-0.6-1.8-1.7-3.1-2.1c-0.9-0.3-1.5-0.2-2.1,0c-1,0.2-1.9,0.4-2.9-1.6c-0.1-0.3-0.3-0.6-0.4-0.9
					c-0.7-1.5-1.4-3-3.1-3.5c-1.9-0.5-2.9,0.2-3.8,0.7c-0.7,0.4-1.4,0.9-2.2,0.4c-0.9-0.4-1.3-1.5-1.7-2.8c-0.3-0.9-0.7-2-1.3-3
					c-1.4-2.2-4.8-3.4-7-2.3c-2.8,1.3-3.5,3.2-4,4.6c-0.3,0.8-0.6,1.5-1.1,1.9c-0.6,0.5-1.4,0.2-2.3-0.1c-1.6-0.5-3.7-1.2-5.9,1.4
					C155.9,20.3,157.6,24.3,157.9,25z"/>
			</g>
			<g>
				<path class="st0" d="M199.5,13c-1.1,0-2.1-1-2.1-2.1s1-2.1,2.1-2.1c1.2,0.1,2.1,1,2.1,2.1C201.6,12,200.7,13,199.5,13z
					 M199.5,9.3c-0.8,0-1.6,0.7-1.6,1.6c0,0.9,0.7,1.6,1.6,1.6s1.6-0.7,1.6-1.6C201.1,10.1,200.4,9.4,199.5,9.3z"/>
			</g>
			<g>
				<path class="st0" d="M320.2,160.6c-1.1,0-2.1-1-2.1-2.1c0-1.1,1-2.1,2.1-2.1c1.1,0,2.1,1,2.1,2.1
					C322.3,159.6,321.3,160.6,320.2,160.6z M320.2,156.9c-0.9,0-1.6,0.7-1.6,1.6c0,0.9,0.7,1.6,1.6,1.6c0.9,0,1.6-0.7,1.6-1.6
					C321.8,157.6,321,156.9,320.2,156.9z"/>
			</g>
			<g>
				<path class="st0" d="M232.7,84.7c-1.1,0-2.1-1-2.1-2.1c0-1.1,1-2.1,2.1-2.1c1.1,0,2.1,0.9,2.1,2.1
					C234.8,83.8,233.9,84.7,232.7,84.7z M232.7,81.1c-0.9,0-1.6,0.7-1.6,1.6c0,0.9,0.7,1.6,1.6,1.6s1.6-0.7,1.6-1.6
					C234.3,81.8,233.6,81.1,232.7,81.1z"/>
			</g>
			<g>
				<path class="st0" d="M6.3,106.4c-1.1,0-2.1-1-2.1-2.1c0-1.1,1-2.1,2.1-2.1c1.2,0,2.1,0.9,2.1,2.1C8.3,105.5,7.4,106.4,6.3,106.4
					z M6.3,102.8c-0.9,0-1.6,0.7-1.6,1.6c0,0.9,0.7,1.6,1.6,1.6c0.9,0,1.6-0.7,1.6-1.6C7.9,103.4,7.2,102.8,6.3,102.8z"/>
			</g>
			<g>
				<path class="st0" d="M81,37.8c-1.1,0-2.1-1-2.1-2.1c0-1.1,1-2.1,2.1-2.1c1.1,0,2.1,0.9,2.1,2.1C83,36.8,82.1,37.8,81,37.8z
					 M81,34.1c-0.9,0-1.6,0.7-1.6,1.6c0,0.9,0.7,1.6,1.6,1.6c0.9,0,1.6-0.7,1.6-1.6C82.6,34.8,81.8,34.1,81,34.1z"/>
			</g>
			<g>
				<path class="st0" d="M103.3,28.9c-0.8,0-1.5-0.7-1.5-1.5s0.7-1.5,1.5-1.5s1.5,0.7,1.5,1.5S104.1,28.9,103.3,28.9z M103.3,26.4
					c-0.6,0-1,0.4-1,1s0.4,1,1,1c0.6,0,1-0.4,1-1S103.8,26.4,103.3,26.4z"/>
			</g>
			<g>
				<path class="st0" d="M305.9,117c-0.8,0-1.5-0.7-1.5-1.5s0.7-1.5,1.5-1.5s1.5,0.7,1.5,1.5S306.8,117,305.9,117z M305.9,114.5
					c-0.6,0-1,0.4-1,1s0.4,1,1,1s1-0.4,1-1S306.5,114.5,305.9,114.5z"/>
			</g>
			<g>
				<path class="st0" d="M216.8,75.8c-0.8,0-1.5-0.7-1.5-1.5s0.7-1.5,1.5-1.5s1.5,0.7,1.5,1.5S217.6,75.8,216.8,75.8z M216.8,73.3
					c-0.5,0-1,0.4-1,1s0.4,1,1,1c0.5,0,1-0.4,1-1S217.3,73.3,216.8,73.3z"/>
			</g>
			<g>
				<path class="st0" d="M265.7,44.5c-0.8,0-1.5-0.7-1.5-1.5s0.7-1.5,1.5-1.5c0.8,0,1.5,0.7,1.5,1.5
					C267.2,43.8,266.6,44.5,265.7,44.5z M265.7,42c-0.6,0-1,0.4-1,1s0.4,1,1,1s1-0.4,1-1C266.7,42.5,266.3,42,265.7,42z"/>
			</g>
			<g>
				<path class="st0" d="M263.1,135.6c-0.8,0-1.5-0.7-1.5-1.5c0-0.8,0.7-1.5,1.5-1.5s1.5,0.7,1.5,1.5
					C264.6,135,263.9,135.6,263.1,135.6z M263.1,133.1c-0.6,0-1,0.4-1,1c0,0.6,0.4,1,1,1s1-0.4,1-1
					C264.1,133.6,263.6,133.1,263.1,133.1z"/>
			</g>
			<g>
				<path class="st0" d="M69.9,147.6c-0.8,0-1.5-0.7-1.5-1.5s0.7-1.5,1.5-1.5c0.8,0,1.5,0.7,1.5,1.5S70.7,147.6,69.9,147.6z
					 M69.9,145.1c-0.6,0-1,0.4-1,1c0,0.6,0.4,1,1,1c0.6,0,1-0.4,1-1C70.9,145.5,70.5,145.1,69.9,145.1z"/>
			</g>
			<g>
				<path class="st0" d="M73.6,90.7c-0.8,0-1.5-0.7-1.5-1.5s0.7-1.5,1.5-1.5c0.8,0,1.5,0.7,1.5,1.5C75.1,90,74.5,90.7,73.6,90.7z
					 M73.6,88.2c-0.6,0-1,0.4-1,1c0,0.6,0.4,1,1,1c0.6,0,1-0.4,1-1C74.6,88.7,74.2,88.2,73.6,88.2z"/>
			</g>
			<g>
				<path class="st1" d="M314.9,97.7h-1.7c-0.3,0-0.5-0.2-0.5-0.5v-1.7c0-0.3,0.2-0.5,0.5-0.5h1.7c0.3,0,0.5,0.2,0.5,0.5v1.7
					C315.4,97.5,315.2,97.7,314.9,97.7z"/>
			</g>
			<g>
				<path class="st1" d="M58.5,155h-1.7c-0.3,0-0.5-0.2-0.5-0.5v-1.6c0-0.3,0.2-0.5,0.5-0.5h1.7c0.3,0,0.5,0.2,0.5,0.5v1.7
					C59.1,154.7,58.8,155,58.5,155z"/>
			</g>
			<g>
				<path class="st1" d="M55.6,53.6H54c-0.3,0-0.5-0.2-0.5-0.5v-1.7c0-0.3,0.2-0.5,0.5-0.5h1.7c0.3,0,0.5,0.2,0.5,0.5V53
					C56.2,53.3,55.9,53.6,55.6,53.6z"/>
			</g>
			<g>
				<path class="st1" d="M269.6,33.9h-3.2c-0.6,0-1-0.4-1-1v-3.2c0-0.6,0.4-1,1-1h3.2c0.6,0,1,0.4,1,1v3.2
					C270.6,33.4,270.2,33.9,269.6,33.9z"/>
			</g>
			<g>
				<path class="st1" d="M239.7,113.7H238c-0.3,0-0.5-0.2-0.5-0.5v-1.7c0-0.3,0.2-0.5,0.5-0.5h1.7c0.3,0,0.5,0.2,0.5,0.5v1.7
					C240.3,113.5,240,113.7,239.7,113.7z"/>
			</g>
			<g>
				<path class="st2" d="M201.8,93.9c0-0.2,0-0.5,0-0.7c0.3-2.2,2-2,3.1-1.9c1.1,0,2.4,0.1,2.9-0.9c0.2-0.4,0.2-1,0.3-1.5
					c0.3-1.1,1.4-1.7,2.5-1.7c1,0,2,0.5,2.9,1.1c2.8,2.1,3.6-3.4,4.9-5c1.5-1.8,4.3-2.8,6.1-1.5c1.9,1.3,3,3.7,3.5,6
					c0.1,0.8,0.2,1.7,0.8,2.1c1.8,1.2,4.2-1.2,6.4,0.7c0.8,0.6,0.9,2.2,0.8,3.3L201.8,93.9L201.8,93.9z"/>
				<path class="st0" d="M201.8,94.2c-0.1,0-0.2-0.1-0.2-0.2v-0.1c0,0,0,0,0,0c0-0.1,0-0.2,0-0.2c0-0.1,0-0.2,0-0.3
					c0.3-2.4,2.1-2.3,3.1-2.2l0.2,0c1,0,2.3,0.1,2.7-0.8c0.1-0.2,0.2-0.5,0.2-0.8c0-0.2,0.1-0.4,0.1-0.6c0.4-1.1,1.5-1.9,2.7-1.9
					c1,0,2,0.4,3,1.2c0.5,0.4,0.9,0.5,1.3,0.4c0.9-0.2,1.6-1.8,2.1-3.2c0.4-0.9,0.7-1.7,1.1-2.2c1.5-1.9,4.4-3,6.5-1.6
					c1.7,1.2,3,3.4,3.6,6.2c0,0.1,0,0.3,0.1,0.4c0.1,0.6,0.2,1.3,0.7,1.6c0.8,0.5,1.6,0.3,2.6,0.1c1.2-0.2,2.5-0.5,3.9,0.6
					c0.9,0.7,1,2.3,0.9,3.5c0,0.1-0.1,0.2-0.2,0.2H202C202,94.1,201.9,94.2,201.8,94.2z M202.1,93.6h33.8c0.1-1.1-0.1-2.3-0.8-2.8
					c-1.1-1-2.3-0.7-3.4-0.5c-1,0.2-2,0.4-2.9-0.2c-0.6-0.4-0.8-1.2-0.9-1.9c0-0.1,0-0.2-0.1-0.4c-0.6-2.6-1.7-4.7-3.4-5.9
					c-1.8-1.2-4.4-0.2-5.8,1.5c-0.4,0.4-0.7,1.2-1,2.1c-0.6,1.5-1.3,3.1-2.5,3.5c-0.5,0.1-1.1,0-1.7-0.5c-0.9-0.7-1.9-1.1-2.7-1.1
					c-0.9,0-1.9,0.5-2.2,1.6c-0.1,0.2-0.1,0.4-0.1,0.6c0,0.3-0.1,0.7-0.3,1c-0.6,1.2-2.1,1.1-3.2,1.1l-0.2,0
					c-1.1-0.1-2.4-0.1-2.6,1.7C202.1,93.3,202.1,93.5,202.1,93.6C202.1,93.6,202.1,93.6,202.1,93.6z"/>
			</g>
		</g>
		<g>
			<g>
				<g>
					<path class="st2" d="M65.3,207.2c-6.2-9.4-19.2-33.1-7.9-41.2c6.2-4.5,14.4-0.4,18.4,9.5c3.8,9.4,5.2,20.5,6.8,31.6"/>
				</g>
				<g>
					<g>
						<path class="st0" d="M65.4,207.2c-3-4.6-5.7-9.3-7.9-14.3c-2.4-5.4-4.6-11.4-4.5-17.3c0.1-5.4,3.4-10.9,9.3-11.1
							c7.4-0.3,11.9,7.5,14,13.5c3.3,9.4,4.5,19.4,5.9,29.2c0,0.2,0.4,0.1,0.4-0.1c-1.3-9.6-2.5-19.2-5.6-28.4
							c-2-6.1-5.8-13.4-12.9-14.5c-5.3-0.8-9.9,3.1-11.1,8.1c-1.3,5.7,0.5,12,2.6,17.3c2.4,6.2,5.7,12.2,9.4,17.8
							C65.3,207.5,65.5,207.3,65.4,207.2L65.4,207.2z"/>
					</g>
				</g>
			</g>
			<g>
				
					<rect x="67.6" y="163.4" transform="matrix(0.9457 -0.3251 0.3251 0.9457 -56.772 32.154)" class="st0" width="0.5" height="45.1"/>
			</g>
			<g>
				<g>
					<path class="st2" d="M40.3,207.2c-5.4-6.9-17.1-24.4-7.3-30.5c5.4-3.3,11.9-0.3,15.4,7c3.3,6.9,4.5,15.1,5.8,23.4"/>
				</g>
				<g>
					<g>
						<path class="st0" d="M40.5,207.2c-2.5-3.3-4.8-6.7-6.8-10.3c-2.1-3.8-4.2-8.2-4.3-12.6c-0.1-4.4,2.9-8.2,7.4-8.6
							c5.7-0.5,9.8,4.7,11.8,9.4c3,7,4.1,14.7,5.3,22.2c0,0.2,0.4,0.1,0.4-0.1c-1.2-7.3-2.3-14.9-5.2-21.8c-1.9-4.7-5.5-9.6-11-10
							c-4.1-0.3-8.1,2.3-9,6.3c-0.9,4.3,0.8,8.9,2.7,12.7c2.2,4.7,5.1,9,8.3,13.1C40.3,207.5,40.6,207.3,40.5,207.2L40.5,207.2z"/>
					</g>
				</g>
			</g>
			<g>
				
					<rect x="41.8" y="174.5" transform="matrix(0.9284 -0.3716 0.3716 0.9284 -68.159 29.3552)" class="st0" width="0.5" height="34"/>
			</g>
			<g>
				<path class="st2" d="M103,207.1c-14.7-26.7-24.2-53.1-12.3-65.6c11.7-12.4,24,2.3,27,15.4c3.7,16,4.2,33.3,4.1,50.3"/>
				<path class="st0" d="M102.8,207.3c-8.3-15-13.7-27.9-16.1-38.2c-3-12.6-1.7-21.9,3.8-27.7c3.8-4,8.1-5.6,12.3-4.4
					c7.4,2,13.2,11.5,15.1,19.9c3.8,16.6,4.2,34.7,4.1,50.3l-0.5,0c0.1-15.6-0.3-33.7-4.1-50.2c-2.5-10.8-9.3-18-14.8-19.5
					c-4.1-1.1-8.1,0.3-11.8,4.3c-5.4,5.7-6.7,14.9-3.7,27.3c2.4,10.3,7.9,23.1,16.1,38L102.8,207.3z"/>
			</g>
			<g>
				
					<rect x="103.6" y="137.2" transform="matrix(0.9686 -0.2484 0.2484 0.9686 -39.6495 31.2192)" class="st0" width="0.5" height="71"/>
			</g>
			<g>
				<g>
					<path class="st2" d="M81,207.2c-5.8-14.1-19-42.6-9.7-51.4c5.9-5.7,16.6,1.3,22.1,13.6c5.2,11.7,6.8,23.7,9.9,37.7"/>
				</g>
				<g>
					<g>
						<path class="st0" d="M81.1,207.2c-2.8-6.8-5.7-13.5-8.1-20.4c-2.4-6.9-4.9-14.4-4.8-21.9c0-2.7,0.5-5.7,2.2-7.9
							c1.9-2.6,5-3.5,8-2.7c3.6,0.9,6.6,3.5,9.1,6.2c3.3,3.7,5.5,8.2,7.2,12.8c4.1,10.9,5.8,22.5,8.3,33.8c0,0.2,0.4,0.1,0.4-0.1
							c-2.4-10.8-4-21.8-7.7-32.2c-2.8-7.8-7.2-16.8-15.3-20.2c-2.6-1.1-5.7-1.4-8.1,0.2c-2.2,1.4-3.5,3.9-4,6.4
							c-0.7,3.1-0.4,6.4,0,9.6c0.6,4,1.6,7.9,2.8,11.7c2.7,8.5,6.2,16.7,9.7,24.8C80.9,207.4,81.2,207.4,81.1,207.2L81.1,207.2z"/>
					</g>
				</g>
			</g>
			<g>
				<g>
					<path class="st2" d="M194.8,207.1c-5-56.7,7.1-77.5,20.3-78.4c6.2-0.4,24.5,3.2,2.4,78.4"/>
				</g>
				<g>
					<g>
						<path class="st0" d="M194.9,207.1c-1.2-18.7-2.5-38.1,2.3-56.4c2.1-7.9,6-18.2,14.6-21.1c3.4-1.1,7.2-0.9,10.1,1.3
							c5.1,4,5.8,11.9,6,17.8c0.2,6.7-0.5,13.4-1.5,20c-1.5,9.9-3.9,19.7-6.5,29.4c-0.8,3-1.6,5.9-2.5,8.9c0,0.2,0.2,0.2,0.3,0.1
							c3.4-10.8,6.1-21.8,8.1-32.9c1.3-7.3,2.4-14.7,2.5-22.1c0-4.5-0.2-9.2-1.4-13.5c-0.7-2.6-1.9-5.1-3.8-7.1
							c-2.4-2.5-5.8-3.4-9.2-2.9c-8.3,1.3-12.9,9.8-15.5,17c-2.4,6.7-3.5,13.9-4.2,21c-1,10.4-0.8,20.9-0.2,31.2
							c0.2,3.1,0.4,6.2,0.7,9.3C194.8,207.3,194.9,207.3,194.9,207.1L194.9,207.1z"/>
					</g>
				</g>
			</g>
			<g>
				
					<rect x="172.3" y="167.8" transform="matrix(0.1466 -0.9892 0.9892 0.1466 14.5605 352.9577)" class="st0" width="79.1" height="0.5"/>
			</g>
			<g>
				<g>
					<path class="st2" d="M233.8,207.1c4-33.7,17.6-53.1,29.9-47.9c10.1,4.3,4.9,23.1-10.8,47.8"/>
				</g>
				<g>
					<g>
						<path class="st0" d="M233.9,207.2c1.5-9.9,3.3-19.8,7.1-29.1c2.5-6.2,6-12.9,11.5-16.9c3.8-2.7,9.1-3.7,13-0.6
							c4.5,3.7,3.3,10.9,2,15.8c-2.9,11.1-9,21-14.8,30.7c-0.1,0.1,0.1,0.3,0.2,0.1c3.4-5.1,6.3-10.4,9.1-15.9
							c2.1-4.3,4-8.6,5.4-13.2c1.5-5.1,3.2-12.3-0.5-16.8c-3-3.6-8.4-3.9-12.3-1.9c-5.7,2.9-9.4,8.9-12.1,14.4
							c-2.3,4.7-4,9.6-5.3,14.6c-1.6,6-2.9,12.3-3.5,18.6C233.7,207.3,233.9,207.3,233.9,207.2L233.9,207.2z"/>
					</g>
				</g>
			</g>
			<g>
				
					<rect x="227.7" y="183" transform="matrix(0.3868 -0.9221 0.9221 0.3868 -13.4202 346.2817)" class="st0" width="51.9" height="0.5"/>
			</g>
			<g>
				
					<rect x="83.2" y="152.6" transform="matrix(0.9474 -0.3202 0.3202 0.9474 -53.4583 36.2385)" class="st0" width="0.5" height="56.2"/>
			</g>
			<g>
				<g>
					<path class="st2" d="M235.3,207.2c7.9-16.9,23.9-55.3,11.9-68.9c-6.6-7.5-18.7,1.7-25.2,18.2c-6.1,15.7-10.7,31.8-14.5,50.5"/>
				</g>
				<g>
					<g>
						<path class="st0" d="M235.4,207.3c4.2-8.7,7.9-17.7,10.9-26.9c3.1-9.5,5.9-19.8,5.3-29.8c-0.4-6.2-3.3-16.2-11.4-14.9
							c-4.4,0.7-8,4.1-10.8,7.4c-4,4.8-6.5,10.5-8.7,16.3c-5.8,15.5-10.1,31.5-13.4,47.7c0,0.2,0.3,0.4,0.4,0.1
							c2.8-13.8,6.3-27.6,11-40.9c2.1-6.2,4.3-12.6,7.8-18.2c2.6-4.3,6-8.6,10.6-10.9c3.5-1.8,7.4-1.5,10.1,1.5
							c2.5,2.9,3.6,6.8,4,10.6c1,9.6-1.6,19.5-4.4,28.6c-3.1,10.1-7.2,19.9-11.6,29.4C235.1,207.3,235.4,207.5,235.4,207.3
							L235.4,207.3z"/>
					</g>
				</g>
			</g>
			<g>
				
					<rect x="195.8" y="171.4" transform="matrix(0.285 -0.9585 0.9585 0.285 2.0832 346.0598)" class="st0" width="74.4" height="0.5"/>
			</g>
			<g>
				<g>
					<path class="st2" d="M249.3,207.1c10.5-21.2,19.6-26.8,28.1-25.1c6.6,1.3,7.7,11.1-6.3,25.1"/>
				</g>
				<g>
					<g>
						<path class="st0" d="M249.4,207.2c3.2-5.8,6.2-11.6,10.5-16.8c2.7-3.1,5.8-6.1,9.8-7.6c2.7-1,6.3-1.4,9.1-0.2
							c3.1,1.3,3.6,4.9,3,7.8c-1.3,6.6-6.3,11.8-10.7,16.6c-0.1,0.1,0,0.3,0.2,0.2c4.5-4.1,8.9-9.6,10.6-15.6
							c0.8-2.9,0.9-6.6-1.6-8.7c-2.2-1.8-5.8-1.7-8.5-1.1c-3.9,0.8-7.2,3.4-10,6.1c-2.2,2.3-4.1,4.8-5.8,7.4
							c-2.4,3.7-4.8,7.6-6.5,11.6C249.2,207.2,249.3,207.3,249.4,207.2L249.4,207.2z"/>
					</g>
				</g>
			</g>
			<g>
				
					<rect x="253.8" y="194.4" transform="matrix(0.5393 -0.8421 0.8421 0.5393 -40.1767 315.8781)" class="st0" width="29.7" height="0.5"/>
			</g>
		</g>
		<g>
			<g>
				<g>
					<path class="st3" d="M119,207c-2.5,0-4.6-2.1-4.6-4.6V38.6c0-2.5,2.1-4.6,4.6-4.6h87c2.5,0,4.6,2.1,4.6,4.6v163.8
						c0,2.5-2.1,4.6-4.6,4.6L119,207L119,207z"/>
				</g>
				<g>
					<path class="st3" d="M206.1,34.3c2.4,0,4.4,2,4.4,4.4v163.8c0,2.4-2,4.4-4.4,4.4h-87c-2.4,0-4.4-2-4.4-4.4V38.6
						c0-2.4,2-4.4,4.4-4.4H206.1 M206.1,33.8h-87c-2.7,0-4.9,2.2-4.9,4.9v163.8c0,2.7,2.2,4.9,4.9,4.9h87c2.7,0,4.9-2.2,4.9-4.9
						V38.6C210.9,35.9,208.7,33.8,206.1,33.8L206.1,33.8z"/>
				</g>
			</g>
			<g>
				<g>
					<path class="st4" d="M162.6,204c-2.6,0-4.7-2.1-4.7-4.7c0-2.6,2.1-4.7,4.7-4.7c1.2,0,2.4,0.4,3.3,1.3c0.9,0.9,1.4,2.1,1.4,3.4
						C167.2,201.9,165.1,204,162.6,204z M162.6,195.2C162.6,195.2,162.6,195.2,162.6,195.2c-2.4,0-4.3,1.9-4.3,4.2s1.9,4.2,4.2,4.2
						s4.2-1.9,4.2-4.2c0-1.1-0.4-2.2-1.3-3C164.7,195.6,163.7,195.2,162.6,195.2z"/>
				</g>
			</g>
			<g>
				<g>
					<g>
						<defs>
							<path id="SVGID_1_" d="M206.1,207.3h-87c-2.7,0-4.9-2.2-4.9-4.9V38.6c0-2.7,2.2-4.9,4.9-4.9h87c2.7,0,4.9,2.2,4.9,4.9v163.8
								C210.9,205.1,208.7,207.3,206.1,207.3z"/>
						</defs>
						<clipPath id="SVGID_00000158027838897718442490000004403802504468025021_">
							<use xlink:href="#SVGID_1_"  style="overflow:visible;"/>
						</clipPath>
						<g style="clip-path:url(#SVGID_00000158027838897718442490000004403802504468025021_);">
							<g>
								<g>
									<defs>
										<polygon id="SVGID_00000105408926152157906020000009767836897847455667_" points="185.5,15 113.1,211.7 134.1,211.7 
											206.5,15 										"/>
									</defs>
									<clipPath id="SVGID_00000155856248967735912850000012013092762647199656_">
										<use xlink:href="#SVGID_00000105408926152157906020000009767836897847455667_"  style="overflow:visible;"/>
									</clipPath>
									<g style="clip-path:url(#SVGID_00000155856248967735912850000012013092762647199656_);">
										
											<image style="overflow:visible;" width="218" height="219" xlink:href="5DF8C1755A07A181.png"  transform="matrix(1 0 0 1 50.6492 4.1235)">
										</image>
									</g>
								</g>
							</g>
							<g>
								<g>
									<defs>
										<polygon id="SVGID_00000135685314727183479140000004708994138475391125_" points="213,15 140.6,211.7 149.6,211.7 
											221.9,15 										"/>
									</defs>
									<clipPath id="SVGID_00000060751841780825509170000018267385721134028710_">
										<use xlink:href="#SVGID_00000135685314727183479140000004708994138475391125_"  style="overflow:visible;"/>
									</clipPath>
									<g style="clip-path:url(#SVGID_00000060751841780825509170000018267385721134028710_);">
										
											<image style="overflow:visible;" width="207" height="206" xlink:href="5DF8C1755A07A187.png"  transform="matrix(1 0 0 1 77.6492 10.1235)">
										</image>
									</g>
								</g>
							</g>
						</g>
					</g>
				</g>
			</g>
			<g>
				<rect x="115" y="49.9" class="st2" width="95.2" height="141.2"/>
			</g>
			<g>
				<g>
					<path class="st4" d="M170.5,42.3h-13.4c-0.4,0-0.8-0.4-0.8-0.8c0-0.4,0.4-0.8,0.8-0.8h13.4c0.4,0,0.8,0.4,0.8,0.8
						C171.3,41.9,170.9,42.3,170.5,42.3z M157.1,41.2c-0.2,0-0.3,0.1-0.3,0.3c0,0.2,0.1,0.3,0.3,0.3h13.4c0.2,0,0.3-0.1,0.3-0.3
						c0-0.2-0.1-0.3-0.3-0.3H157.1z"/>
				</g>
				<g>
					<path class="st4" d="M154.1,42.3c-0.4,0-0.8-0.4-0.8-0.8c0-0.4,0.4-0.8,0.8-0.8c0.4,0,0.8,0.4,0.8,0.8
						C154.9,41.9,154.6,42.3,154.1,42.3z M154.1,41.2c-0.2,0-0.3,0.1-0.3,0.3c0,0.2,0.1,0.3,0.3,0.3s0.3-0.1,0.3-0.3
						C154.4,41.3,154.3,41.2,154.1,41.2z"/>
				</g>
			</g>
			<g>
				<g>
					<g>
						<rect x="121.5" y="104.6" class="st6" width="41.1" height="41.5"/>
					</g>
					<g>
						<g>
							<path class="st2" d="M142,128.2c-4.8,0-8.8-3.9-8.8-8.8s3.9-8.8,8.8-8.8s8.8,3.9,8.8,8.8S146.9,128.2,142,128.2z M142,111.1
								c-4.6,0-8.3,3.7-8.3,8.3c0,4.6,3.7,8.3,8.3,8.3c4.6,0,8.3-3.7,8.3-8.3C150.3,114.9,146.6,111.1,142,111.1z"/>
						</g>
						<g>
							<path class="st2" d="M142,128.2c-3.4,0-6.1-3.9-6.1-8.8s2.7-8.8,6.1-8.8c3.4,0,6.1,3.9,6.1,8.8S145.3,128.2,142,128.2z
								 M142,111.1c-3.1,0-5.6,3.7-5.6,8.3c0,4.6,2.5,8.3,5.6,8.3c3.1,0,5.6-3.7,5.6-8.3C147.6,114.9,145.1,111.1,142,111.1z"/>
						</g>
						<g>
							<path class="st2" d="M142,128.2c-1.6,0-2.5-4.5-2.5-8.8c0-4.3,0.9-8.8,2.5-8.8c1.6,0,2.5,4.5,2.5,8.8
								C144.5,123.7,143.6,128.2,142,128.2z M142,111.1c-1,0-2,3.4-2,8.3c0,4.9,1.1,8.3,2,8.3c1,0,2-3.4,2-8.3
								C144,114.5,142.9,111.1,142,111.1z"/>
						</g>
						<g>
							<rect x="133.5" y="119.2" class="st2" width="17" height="0.5"/>
						</g>
						<g>
							<path class="st2" d="M149.6,123.4c-1.7-0.6-4.5-0.9-7.6-0.9s-5.9,0.3-7.6,0.9l-0.2-0.5c1.7-0.6,4.5-0.9,7.7-0.9
								c3.1,0,6,0.3,7.7,0.9L149.6,123.4z"/>
						</g>
						<g>
							<path class="st2" d="M137,126.4l-0.2-0.5c1.6-0.6,3.4-0.9,5.2-0.9c1.9,0,3.6,0.3,5.2,0.9l-0.2,0.5c-1.5-0.5-3.2-0.8-5-0.8
								C140.3,125.5,138.5,125.8,137,126.4z"/>
						</g>
						<g>
							<path class="st2" d="M142,116.8c-3.2,0-6-0.3-7.7-0.9l0.2-0.5c1.7,0.6,4.5,0.9,7.6,0.9s5.9-0.3,7.6-0.9l0.2,0.5
								C148,116.4,145.2,116.8,142,116.8z"/>
						</g>
						<g>
							<path class="st2" d="M142,113.8c-1.8,0-3.6-0.3-5.2-0.9l0.2-0.5c1.6,0.6,3.3,0.9,5.1,0.9c1.8,0,3.5-0.3,5-0.8l0.2,0.5
								C145.7,113.5,143.9,113.8,142,113.8z"/>
						</g>
					</g>
					<g>
						<g>
							<rect x="125" y="136.5" class="st7" width="34.1" height="2.2"/>
						</g>
						<g>
							<rect x="138.7" y="132.5" class="st7" width="20.4" height="2.2"/>
						</g>
						<g>
							<rect x="124.9" y="132.5" class="st7" width="11.4" height="2.2"/>
						</g>
						<g>
							<rect x="125" y="140.6" class="st7" width="34.1" height="2.2"/>
						</g>
					</g>
				</g>
				<g>
					<g>
						<rect x="162.5" y="104.6" class="st8" width="41.1" height="41.5"/>
					</g>
					<g>
						<g>
							<rect x="166" y="112" class="st1" width="34.1" height="2.2"/>
						</g>
						<g>
							<rect x="166" y="116.1" class="st1" width="34.1" height="2.2"/>
						</g>
						<g>
							<rect x="166" y="120.2" class="st1" width="10.6" height="2.2"/>
						</g>
						<g>
							<rect x="179.5" y="120.2" class="st1" width="20.6" height="2.2"/>
						</g>
						<g>
							<rect x="166" y="124.3" class="st1" width="34.1" height="2.2"/>
						</g>
						<g>
							<rect x="166" y="128.4" class="st1" width="34.1" height="2.2"/>
						</g>
						<g>
							<rect x="166" y="132.5" class="st1" width="34.1" height="2.2"/>
						</g>
						<g>
							<rect x="190.3" y="136.5" class="st1" width="9.9" height="2.2"/>
						</g>
						<g>
							<rect x="166" y="136.5" class="st1" width="21.9" height="2.2"/>
						</g>
						<g>
							<rect x="166" y="140.6" class="st1" width="34.1" height="2.2"/>
						</g>
						<g>
							<rect x="191.1" y="108" class="st1" width="9" height="2.2"/>
						</g>
						<g>
							<rect x="166" y="107.9" class="st1" width="22.8" height="2.2"/>
						</g>
					</g>
				</g>
				<g>
					<g>
						<rect x="121.5" y="146.1" class="st8" width="41.1" height="41.5"/>
					</g>
					<g>
						<g>
							<rect x="124.9" y="178.1" class="st1" width="34.1" height="2.2"/>
						</g>
						<g>
							<rect x="124.9" y="174" class="st1" width="34.1" height="2.2"/>
						</g>
						<g>
							<rect x="150.3" y="169.9" class="st1" width="8.8" height="2.2"/>
						</g>
						<g>
							<rect x="125" y="169.9" class="st1" width="22.5" height="2.2"/>
						</g>
						<g>
							<rect x="124.9" y="165.8" class="st1" width="34.1" height="2.2"/>
						</g>
						<g>
							<rect x="124.9" y="161.7" class="st1" width="34.1" height="2.2"/>
						</g>
						<g>
							<rect x="124.9" y="157.6" class="st1" width="34.1" height="2.2"/>
						</g>
						<g>
							<rect x="124.9" y="153.6" class="st1" width="15.9" height="2.2"/>
						</g>
						<g>
							<rect x="143.2" y="153.6" class="st1" width="15.9" height="2.2"/>
						</g>
						<g>
							<rect x="124.9" y="149.5" class="st1" width="34.1" height="2.2"/>
						</g>
						<g>
							<rect x="124.9" y="182.1" class="st1" width="15.9" height="2.2"/>
						</g>
						<g>
							<rect x="143.2" y="182.2" class="st1" width="15.9" height="2.2"/>
						</g>
					</g>
				</g>
				<g>
					<g>
						<rect x="162.5" y="146.1" class="st6" width="41.1" height="41.5"/>
					</g>
					<g>
						<g>
							<g>
								<polygon class="st9" points="191.4,174.7 174.9,174.5 173.1,162.7 193,162.6 								"/>
							</g>
							<g>
								<polygon class="st9" points="193,162.6 173.1,162.7 183,154.5 								"/>
							</g>
							<g>
								
									<rect x="176.1" y="161.5" transform="matrix(1 -1.760901e-03 1.760901e-03 1 -0.2942 0.3224)" class="st2" width="13.6" height="11.5"/>
							</g>
							<g>
								<polygon class="st7" points="173.1,162.7 173.1,175.6 183.1,169.6 								"/>
							</g>
							<g>
								<polygon class="st7" points="193,162.6 193,175.6 183.1,169.6 								"/>
							</g>
							<g>
								<polygon class="st7" points="193,175.6 173.1,175.6 183.1,167.4 								"/>
							</g>
							<g>
								<polygon class="st6" points="173.3,175.8 173,175.4 183.1,167.1 193.2,175.4 192.9,175.8 183.1,167.7 								"/>
							</g>
							<g>
								
									<rect x="183.5" y="165.4" transform="matrix(0.8201 -0.5722 0.5722 0.8201 -60.8125 137.7632)" class="st6" width="10.4" height="0.5"/>
							</g>
						</g>
						<g>
							
								<rect x="177.1" y="160.4" transform="matrix(0.5667 -0.8239 0.8239 0.5667 -59.6281 217.8857)" class="st6" width="0.5" height="10.4"/>
						</g>
					</g>
					<g>
						<rect x="175.1" y="180.6" class="st7" width="15.9" height="2.2"/>
					</g>
				</g>
				<g>
					<g>
						<rect x="121.5" y="59.5" class="st6" width="82.2" height="41.4"/>
					</g>
					<g>
						<g>
							<rect x="161.4" y="65.5" class="st7" width="38.7" height="2.9"/>
						</g>
						<g>
							<rect x="161.4" y="70.8" class="st7" width="38.7" height="2.9"/>
						</g>
						<g>
							<rect x="161.4" y="76.1" class="st7" width="38.7" height="2.9"/>
						</g>
						<g>
							<rect x="161.4" y="81.4" class="st7" width="38.7" height="2.9"/>
						</g>
						<g>
							<rect x="161.4" y="92.1" class="st7" width="38.7" height="2.9"/>
						</g>
						<g>
							<rect x="177" y="86.8" class="st7" width="23.1" height="2.9"/>
						</g>
						<g>
							<rect x="161.4" y="86.8" class="st7" width="12.9" height="2.9"/>
						</g>
					</g>
					<g>
						<g>
							<rect x="126.2" y="65.6" class="st7" width="29.3" height="29.3"/>
						</g>
						<g>
							<polygon class="st2" points="143.5,74.7 152.4,90 134.6,90 							"/>
						</g>
						<g>
							<polygon class="st2" points="134.5,79.7 136.4,83.4 133,90 129.2,90 							"/>
						</g>
						<g>
							<path class="st2" d="M129.9,73.9c0,0.9,0.7,1.6,1.6,1.6c0.9,0,1.6-0.7,1.6-1.6c0-0.9-0.7-1.6-1.6-1.6
								C130.7,72.2,129.9,72.9,129.9,73.9z"/>
						</g>
					</g>
				</g>
				<g>
					<path class="st6" d="M139.4,56.1h46.3c0.7,0,1.3-0.6,1.3-1.3l0,0c0-0.7-0.6-1.3-1.3-1.3h-46.3c-0.7,0-1.3,0.6-1.3,1.3l0,0
						C138.1,55.5,138.7,56.1,139.4,56.1z"/>
				</g>
				<g>
					<rect x="162.3" y="104.6" class="st2" width="0.5" height="83.1"/>
				</g>
				<g>
					<rect x="121.5" y="145.9" class="st2" width="82.2" height="0.5"/>
				</g>
			</g>
		</g>
		<g>
			<rect x="24.4" y="207" class="st3" width="276.4" height="0.5"/>
		</g>
		<g>
			<g>
				<g>
					<g>
						<g>
							<path class="st10" d="M285.5,193.5l0.8,14.1l-0.4,4.5l-16.9-0.1c-0.4,0-0.8-0.3-0.7-0.8l0,0c0-0.3,0.2-0.6,0.5-0.7l7.5-3.5
								l-1.7-14.7"/>
						</g>
						<g>
							<path class="st11" d="M267.5,211.8c0.2-0.5,0.5-1.2,0.8-1.3l8-3.4c4.4,1.8,10.1,0.4,10.1,0.4l0.4,6c0,0.2-0.1,0.3-0.3,0.3
								l-18.8-0.1C267.2,213.7,267.5,211.9,267.5,211.8z"/>
						</g>
						<g>
							<path class="st12" d="M275.5,209.4c-0.3-0.6-0.7-1.2-1.1-1.8l0.3-0.2c0.5,0.6,0.9,1.3,1.2,1.9L275.5,209.4z"/>
						</g>
						<g>
							<path class="st12" d="M274.4,209.7c-0.3-0.6-0.5-0.9-0.9-1.6l0.3-0.2c0.5,0.7,0.7,1,1,1.6L274.4,209.7z"/>
						</g>
						<g>
							<path class="st12" d="M273.4,210c-0.2-0.5-0.5-1-0.8-1.5l0.3-0.2c0.3,0.5,0.7,1,0.9,1.5L273.4,210z"/>
						</g>
					</g>
					<g>
						
							<rect x="276.9" y="202.8" transform="matrix(5.133145e-03 -1 1 5.133145e-03 63.1786 488.5056)" class="st12" width="0.4" height="19.3"/>
					</g>
					<g>
						<path class="st12" d="M281.9,212.5l-0.4-0.1c0.4-2.9,4.9-3,5-3l0,0.4C286.5,209.9,282.3,209.9,281.9,212.5z"/>
					</g>
					<g>
						<path class="st12" d="M271.3,212.5c-0.2-0.8-1.5-2.6-1.5-2.6l0.3-0.2c0.1,0.1,1.3,1.9,1.6,2.7L271.3,212.5z"/>
					</g>
				</g>
				<g>
					<path class="st13" d="M272.2,139.1c0,0-2.4,19.9-1.5,34.3c0.9,14.5,2.3,31.2,2.3,31.2h14.7c0,0-1.9-24.8-1.7-36.4
						c0.2-12.9,4.2-29.1,4.2-29.1"/>
				</g>
				<g>
					<path class="st14" d="M284.5,204.8c0-0.2-1.9-25-1.7-36.4c0.2-12.8,4.1-29,4.2-29.2l0.4,0.1c0,0.2-3.9,16.4-4.2,29.1
						c-0.2,11.5,1.7,36.2,1.7,36.4L284.5,204.8z"/>
				</g>
				<g>
					<g>
						<g>
							<path class="st10" d="M304.8,174.6l13.6,4.4l4.1,1.8l-5.2,16.1c-0.1,0.4-0.5,0.6-1,0.5l0,0c-0.3-0.1-0.5-0.4-0.5-0.7l-1-8.2
								l-14.1-4.6"/>
						</g>
						<g>
							<path class="st11" d="M316.7,198.2c-0.5-0.3-1-0.8-1-1.2l-0.8-8.6c3-3.7,3.5-9.5,3.5-9.5l5.8,1.4c0.2,0,0.3,0.2,0.2,0.4
								l-5.8,17.9C318.4,199,316.7,198.2,316.7,198.2z"/>
						</g>
						<g>
							<path class="st12" d="M314.6,190.3l-0.1-0.4c0.7-0.2,1.3-0.4,2.2-0.5l0,0.4C315.9,189.9,315.3,190,314.6,190.3z"/>
						</g>
						<g>
							<path class="st12" d="M314.9,191.4l-0.1-0.4c0.7-0.2,1.1-0.3,1.8-0.4l0.1,0l0.1,0.4l-0.1,0
								C316,191.1,315.6,191.2,314.9,191.4z"/>
						</g>
						<g>
							<path class="st12" d="M315.1,192.4L315,192c0.5-0.1,1.1-0.3,1.7-0.4l0.1,0.4C316.2,192.1,315.5,192.2,315.1,192.4z"/>
						</g>
					</g>
					<g>
						
							<rect x="310.5" y="189" transform="matrix(0.3076 -0.9515 0.9515 0.3076 41.6294 435.6683)" class="st12" width="19.3" height="0.4"/>
					</g>
					<g>
						<path class="st12" d="M321.5,185c-2.7-1.3-1.4-5.5-1.3-5.7l0.4,0.1c0,0-1.3,4.1,1.1,5.3L321.5,185z"/>
					</g>
					<g>
						<path class="st12" d="M315.5,195.4l-0.1-0.4c0.1,0,2.2-0.7,3.1-0.7l0,0.4C317.6,194.7,315.5,195.4,315.5,195.4z"/>
					</g>
				</g>
				<g>
					<path class="st13" d="M296.1,139.8c0,0,1.3,5.7,1.3,8.1c0,1.8-0.7,3-1.1,4.3c-0.1,0.5-0.2,1.1-0.3,1.7
						c-0.1,2.6-0.2,9.9,1.4,13.4c2,4.3,18.7,9.9,18.7,9.9l-4.2,12.7c0,0-25.5-6.4-28.7-14.2c-4.5-10.9-3.2-35.9-3.2-35.9"/>
				</g>
				<g>
					<path class="st14" d="M286.2,179.5c-1.7-1.3-2.7-2.5-3.1-3.7c-4.4-10.8-3.2-35.8-3.2-36l0.4,0c0,0.2-1.2,25.1,3.2,35.9
						c0.4,1.2,1.4,2.3,3,3.6L286.2,179.5z"/>
				</g>
				<g>
					<path class="st14" d="M315.4,179.4c-0.7-0.3-17.5-6.3-20.1-11c-1.7-3.2-1.6-9.9-1.4-13.5c0.1-0.6,0.2-1.1,0.3-1.6
						c0.1-0.4,0.2-0.8,0.4-1.2c0.3-0.9,0.7-1.9,0.7-3.1c0-2.4-1.5-9.5-1.5-9.5l0.4-0.1c0.1,0.3,1.5,7.2,1.5,9.6
						c0,1.3-0.4,2.3-0.7,3.3c-0.1,0.4-0.3,0.8-0.4,1.2c-0.1,0.5-0.2,1-0.3,1.6c-0.2,3.6-0.3,10.2,1.4,13.3
						c2.5,4.6,19.7,10.8,19.9,10.9L315.4,179.4z"/>
				</g>
				<g>
					<path class="st14" d="M279.8,148.1c0,0-0.7-0.5-1.5-1.1c-0.8-0.6-0.6-5-0.6-5.9l0.4,0c-0.1,2-0.1,5.2,0.4,5.6
						c0.7,0.6,1.4,1,1.4,1L279.8,148.1z"/>
				</g>
				<g>
					<polygon class="st14" points="309.5,189.3 309.2,189.2 313.9,176.4 314.2,176.5 					"/>
				</g>
				<g>
					<rect x="272.8" y="202.1" class="st14" width="14.7" height="0.4"/>
				</g>
				<g>
					<path class="st14" d="M294.9,144.6c-4.2-1-5.1-4.4-5.1-4.4l0.4-0.1c0,0,0.9,3.2,4.9,4.1L294.9,144.6z"/>
				</g>
				<g>
					<path class="st14" d="M271.8,144l-0.1-0.4c0,0,3.6-1.1,4.7-3.6l0.3,0.2C275.6,142.9,272,144,271.8,144z"/>
				</g>
			</g>
			<g>
				<g>
					<path class="st15" d="M280.7,100.5l-0.6,4.6c0,0,0,1.3,2.4,2.2c3,1.1,4.9-1.2,4.9-1.2l-0.2-4.7"/>
				</g>
				<g>
					<path class="st15" d="M280.3,94.3c0,0-3.2,5.4-1,7.5c2,1.9,6.4,0.7,6.8,0c0.4-0.7,2.9-6.6,1.5-7.5
						C285.2,92.9,281.7,92.1,280.3,94.3z"/>
				</g>
				<g>
					<path class="st16" d="M282.2,103.3c-1.1,0-1.9-0.3-2-0.3l0.2-0.5c0,0,2.1,0.7,4-0.2l0.2,0.5
						C283.8,103.2,282.9,103.3,282.2,103.3z"/>
				</g>
				<g>
					<g>
						<path class="st17" d="M279.7,90.9c0.4-3.2,4.3-0.8,5.8,0.6c0.4,0.4,3.2,1.2,3.6,1.7c0.4,0.4,0.8,1,0.9,1.6
							c0.1,0.5,0,1.1-0.1,1.6c-0.2,1-0.6,1.9-1,2.8c-0.4,1-1.1,3-2.6,2.8c-0.3,0-0.6-0.1-0.7-0.3c-0.2-0.2-0.2-0.5-0.1-0.8
							c0-0.4,0.2-0.9,0.4-1.3c-0.3,0.1-0.6,0.2-0.9,0.1c-0.1,0-0.1-0.1-0.2-0.2c-0.2-0.3,0-2.3,1-3.2c-1.4-0.6-2.4-0.7-3.9-1.3
							c-1.1-0.5-1.6-1-2-1.6C279.3,92.9,279.6,91.9,279.7,90.9z"/>
					</g>
				</g>
				<g>
					<g>
						<path class="st15" d="M285.5,99.6c0.3-0.5,0.9-1,1.4-0.5c0.2,0.2,0.2,0.5,0.2,0.8c0,0.9-0.9,2.2-1.8,1.8
							c-0.4-0.1-0.5-0.7-0.6-1.2"/>
					</g>
				</g>
				<g>
					<path class="st18" d="M280.6,99.4c-0.1,0-1.1-0.3-1.1-0.9c0-0.5,1.2-1.7,1.4-1.9l0.2,0.2c-0.5,0.5-1.4,1.4-1.4,1.7
						c0,0.3,0.6,0.5,1,0.6L280.6,99.4z"/>
				</g>
				<g>
					<path class="st2" d="M279.1,99.4l2.5,0.9c0,0-0.6,1.5-2.1,0.8C278.4,100.7,279.1,99.4,279.1,99.4z"/>
				</g>
				<g>
					<g>
						<g>
							<path class="st19" d="M279.9,96c-0.1,0.1-0.1,0.2-0.2,0.3c-0.1,0.2,0.2,0.4,0.3,0.2c0-0.1,0.1-0.2,0.2-0.4
								C280.3,95.9,280,95.8,279.9,96L279.9,96z"/>
						</g>
					</g>
				</g>
				<g>
					<path class="st19" d="M281,95.6c0,0-0.1,0-0.1-0.1c0,0-0.1-0.2-0.3-0.3c-0.2-0.1-0.3,0-0.5,0.1c-0.1,0-0.1,0-0.2-0.1
						c0-0.1,0-0.1,0.1-0.2c0.3-0.1,0.5-0.1,0.7-0.1c0.3,0.1,0.5,0.5,0.5,0.5C281.2,95.5,281.1,95.6,281,95.6
						C281,95.6,281,95.6,281,95.6z"/>
				</g>
				<g>
					<g>
						<g>
							<path class="st19" d="M283,97.5c0,0.1-0.1,0.2-0.2,0.3c-0.1,0.2,0.2,0.4,0.3,0.2c0-0.1,0.1-0.2,0.1-0.4
								C283.4,97.4,283.1,97.3,283,97.5L283,97.5z"/>
						</g>
					</g>
				</g>
				<g>
					<path class="st19" d="M284.4,97.3c0,0-0.1,0-0.1-0.1c-0.5-0.9-1.1-0.8-1.2-0.8c-0.1,0-0.1,0-0.1-0.1c0-0.1,0-0.1,0.1-0.1
						c0,0,0.8-0.1,1.4,1C284.6,97.2,284.6,97.3,284.4,97.3C284.5,97.3,284.5,97.3,284.4,97.3z"/>
				</g>
			</g>
			<g>
				<g>
					<g>
						<g>
							<path class="st10" d="M269.9,80.3c-0.2-2.7,0.1-10.3-0.3-10.5c-0.4-0.2-0.6,2.4-1,2.1c-0.3-0.2-0.3-4.2-0.8-4.3
								c-0.7-0.1-0.5,4-0.5,4s-0.4-4.5-1.1-4.4c-0.4,0-0.3,3.5-0.4,4.8c0-1.4-0.5-4.1-0.9-4c-0.4,0.1-0.4,2.8-0.4,4.6
								c-0.1-1.1-0.3-3.6-0.7-3.5c-0.4,0-0.5,6.4-0.6,11.7"/>
						</g>
					</g>
					<g>
						<path class="st10" d="M269.3,107.1c0,0-2.9-6-4.7-13c-1.8-7-1.5-16.2-1.5-16.2l6.7,1.1c0,0,0.3,12.7,8,25.4"/>
					</g>
					<g>
						<path class="st18" d="M266,76.4l-0.5,0c0-1.5-0.5-2.4-1.1-3.2l-0.1-0.2l0.4-0.3l0.1,0.2C265.4,73.7,266,74.8,266,76.4z"/>
					</g>
					<g>
						<path class="st18" d="M267.3,75.6c-0.4-0.9,0.3-2.6,1.1-3.2l0.3,0.4c-0.6,0.6-1.2,2-0.9,2.6L267.3,75.6z"/>
					</g>
				</g>
				<g>
					<path class="st0" d="M291.7,79c1-1.1,1.9-2.4,2.6-3.9c0.7-1.4,1.2-2.9,1.6-4.4l-4-1.3c0.3-1.4,0.4-2.8,0.3-4.2l4.2-0.7
						c-0.2-3.1-1.2-6.1-2.9-8.8l-3.8,1.9c-0.7-1.1-1.6-2.2-2.7-3.2l2.4-3.5c-1.1-1-2.4-1.9-3.9-2.6c-1.4-0.7-2.9-1.2-4.4-1.6l-1.3,4
						c-1.4-0.3-2.8-0.4-4.2-0.3l-0.7-4.2c-3.1,0.2-6.1,1.2-8.8,2.9l1.9,3.8c-1.1,0.7-2.2,1.6-3.2,2.7l-3.5-2.4
						c-1,1.1-1.9,2.4-2.6,3.9c-0.7,1.4-1.2,2.9-1.6,4.4l4,1.3c-0.3,1.4-0.4,2.8-0.3,4.2l-4.2,0.7c0.2,3.1,1.2,6.1,2.9,8.8l3.8-1.9
						c0.7,1.1,1.6,2.2,2.7,3.2l-2.4,3.5c1.1,1,2.4,1.9,3.9,2.6c1.4,0.7,2.9,1.2,4.4,1.6l1.3-4c1.4,0.3,2.8,0.4,4.2,0.3l0.7,4.2
						c3.1-0.2,6.1-1.2,8.8-2.9l-1.9-3.8c1.1-0.7,2.2-1.6,3.2-2.7L291.7,79z M273.1,72.9c-3.8-1.9-5.3-6.5-3.3-10.3
						c1.9-3.8,6.5-5.3,10.3-3.3c3.8,1.9,5.3,6.5,3.3,10.3S276.9,74.8,273.1,72.9z"/>
				</g>
				<g>
					<path class="st11" d="M280.1,104.4c-2,0-5.2-6.4-5.2-6.4l-8.1,6c0,0,2.6,8,6.9,13.1"/>
				</g>
				<g>
					
						<rect x="266.3" y="102.2" transform="matrix(0.7986 -0.6019 0.6019 0.7986 -6.9431 184.0299)" class="st12" width="10.3" height="0.4"/>
				</g>
				<g>
					<g>
						<g>
							<path class="st10" d="M301,77c-0.4-3-1.5-9.9-2-10c-0.5-0.1-0.7,1.5-0.5,2.2c-0.3-1.2-1.2-4-1.7-4c-0.7,0,0.2,4,0.2,4
								s-1.2-4.3-1.8-4.1c-0.4,0.1,0.3,3.5,0.4,4.8c-0.3-1.4-1.2-4-1.6-3.8c-0.4,0.1,0.1,2.8,0.4,4.6c-0.2-1.1-0.9-3.5-1.3-3.3
								c-0.4,0.1,0.7,5.6,1.3,11"/>
						</g>
					</g>
					<g>
						<path class="st10" d="M299.6,104.7c0,0,1.8-6.4,2.3-13.7c0.5-7.2-1.3-16.2-1.3-16.2l-6.4,2.3c0,0,1.9,12.6-3.5,26.4"/>
					</g>
				</g>
				<g>
					<path class="st11" d="M280.1,104.4c0,0,0.4,1.1,2.6,1.2c2.9,0.1,4.5-1.2,4.5-1.2s8.6,1.1,9.3,10.5c0.8,10.8,1,25.9,1,25.9
						h-26.7c0,0,0.2-17.2,0.7-25.5C272,107.4,280.1,104.4,280.1,104.4z"/>
				</g>
				<g>
					<path class="st11" d="M296.4,116.1c3.2-8.4,4.4-14.8,4.4-14.8l-8.6-4.2c0,0-2,5.7-5,7.2"/>
				</g>
				<g>
					
						<rect x="295.8" y="96.1" transform="matrix(0.4331 -0.9014 0.9014 0.4331 76.771 324.0116)" class="st12" width="0.4" height="9.8"/>
				</g>
				<g>
					<rect x="270.8" y="139.2" class="st12" width="26.7" height="0.4"/>
				</g>
				<g>
					<path class="st12" d="M295.6,119l-0.4,0c0.1-1.2,1.2-3.4,1.2-3.5l0.3,0.2C296.8,115.6,295.7,117.9,295.6,119z"/>
				</g>
				<g>
					<path class="st12" d="M271.7,115.3l-0.4,0c0.3-3.2,2-6,2-6l0.3,0.2C273.6,109.5,272,112.2,271.7,115.3z"/>
				</g>
				<g>
					<path class="st12" d="M283,107.3c-3.6,0-4.1-3.2-4.1-3.3l0.4-0.1c0,0.1,0.5,3,3.7,3c4.1,0,4.9-3,4.9-3l0.4,0.1
						C288.3,104.1,287.4,107.3,283,107.3z"/>
				</g>
				<g>
					<g>
						<path class="st16" d="M298.4,69.2C298.4,69.2,298.5,69.3,298.4,69.2l0.1,0.2l0.1,0.2c0,0.1,0.1,0.3,0.2,0.5
							c0.1,0.3,0.2,0.7,0.2,1c-0.1-0.1-0.2-0.3-0.2-0.4c-0.1-0.1-0.1-0.3-0.2-0.5c0-0.1-0.1-0.3-0.1-0.5l0-0.2v-0.1L298.4,69.2
							C298.4,69.2,298.4,69.2,298.4,69.2z"/>
					</g>
				</g>
			</g>
		</g>
		<g>
			<g>
				<g>
					<g>
						<g>
							<path class="st10" d="M235.3,192.7l0.4,14.7l-0.5,4.6l-17.5-0.1c-0.4,0-0.8-0.3-0.8-0.8l0,0c0-0.3,0.2-0.6,0.5-0.7l7.8-3.6
								l-1.2-15.3"/>
						</g>
						<g>
							<path class="st20" d="M216.2,211.8c0.2-0.6,0.5-1.2,0.8-1.4l8.3-3.6c4.6,1.8,10.5,0.4,10.5,0.4l0.4,6.2
								c0,0.2-0.1,0.4-0.4,0.3l-19.6-0.1C215.9,213.7,216.2,211.8,216.2,211.8z"/>
						</g>
						<g>
							<path class="st14" d="M224.6,209.2c-0.4-0.8-0.8-1.4-1.2-2l0.3-0.2c0.4,0.5,0.8,1.2,1.2,2L224.6,209.2z"/>
						</g>
						<g>
							<path class="st14" d="M223.3,209.5c-0.2-0.6-0.4-1-0.9-1.6l0.3-0.2c0.5,0.7,0.7,1.1,1,1.7L223.3,209.5z"/>
						</g>
						<g>
							<path class="st14" d="M222.4,209.9c-0.2-0.5-0.5-1.1-0.9-1.5l0.3-0.2c0.4,0.5,0.7,1.1,0.9,1.6L222.4,209.9z"/>
						</g>
					</g>
					<g>
						
							<rect x="226" y="202.4" transform="matrix(4.955221e-03 -1 1 4.955221e-03 12.5753 437.5409)" class="st14" width="0.4" height="20"/>
					</g>
					<g>
						<path class="st14" d="M231.1,212.5l-0.4-0.1c0.4-3,5-3.1,5.2-3.1l0,0.4C236,209.7,231.5,209.8,231.1,212.5z"/>
					</g>
					<g>
						<path class="st14" d="M220.2,212.5c-0.2-0.9-1.5-2.7-1.6-2.7l0.3-0.2c0.1,0.1,1.4,1.9,1.6,2.8L220.2,212.5z"/>
					</g>
				</g>
				<g>
					<path class="st21" d="M233.3,135.1c0,0,2.1,3.6,2.7,6.2c1,4.3,0,8.6,0,8.6l0,51.3h-13c0,0-2.9-59.1-1.6-66.8"/>
				</g>
				<g>
					<path class="st14" d="M224.8,201.3c0-0.6-2.9-59.2-1.6-66.9l0.4,0.1c-1.3,7.6,1.6,66.2,1.6,66.8L224.8,201.3z"/>
				</g>
				<g>
					<g>
						<g>
							<path class="st10" d="M220.9,187l5.9,13.4l1.3,4.5l-16.3,6.4c-0.4,0.1-0.9,0-1-0.4l0,0c-0.1-0.3,0-0.6,0.2-0.9l5.9-6.2
								l-6.8-13.7"/>
						</g>
						<g>
							<path class="st13" d="M210.3,211.7c0-0.6,0-1.3,0.3-1.6l6.3-6.4c4.9,0,9.9-3.5,9.9-3.5l2.7,5.6c0.1,0.2,0,0.4-0.2,0.5
								l-18.2,7.2C210.8,213.7,210.3,211.8,210.3,211.7z"/>
						</g>
						<g>
							<path class="st14" d="M217.1,206.2c-0.5-0.5-1-0.9-1.8-1.4l0.2-0.3c0.8,0.5,1.4,0.9,1.9,1.4L217.1,206.2z"/>
						</g>
						<g>
							<path class="st14" d="M216.1,207l-0.2-0.2c-0.4-0.4-0.7-0.6-1.3-1l0.2-0.3c0.6,0.4,0.9,0.7,1.3,1l0.2,0.2L216.1,207z"/>
						</g>
						<g>
							<path class="st14" d="M215.3,207.7c-0.5-0.4-1-0.8-1.4-1.1l0.2-0.3c0.5,0.4,1.2,0.9,1.4,1.1L215.3,207.7z"/>
						</g>
					</g>
					<g>
						<polygon class="st14" points="210.6,212.5 210.4,212.2 229.1,204.8 229.2,205.1 						"/>
					</g>
					<g>
						<path class="st14" d="M224,206.9c-0.7-2.9,3.5-4.8,3.7-4.8l0.1,0.3c0,0-4.2,1.8-3.5,4.4L224,206.9z"/>
					</g>
					<g>
						<path class="st14" d="M214.3,210.9c-0.6-0.7-2.5-1.9-2.5-1.9l0.2-0.3c0.1,0.1,2,1.3,2.6,2L214.3,210.9z"/>
					</g>
				</g>
				<g>
					<path class="st13" d="M210.9,143.4c-6.7,16.4-6.8,18.1-7.9,26.2c-1.1,8.2,11.2,32.4,11.2,32.4l11.8-5.3c0,0-7.9-22.2-7.3-25.9
						c0.9-7,9-18.9,9-18.9s3.8-3,4.7-7.1c0.8-4-1-8.3-1-8.3"/>
				</g>
				<g>
					<path class="st14" d="M223.1,145.5l-0.1-0.4c0.1,0,5.1-1.6,5.3-1.7l0.1,0.4C228.4,143.8,223.3,145.5,223.1,145.5z"/>
				</g>
				<g>
					
						<rect x="234.4" y="141.7" transform="matrix(0.9515 -0.3076 0.3076 0.9515 -32.2406 79.2506)" class="st14" width="1.8" height="0.4"/>
				</g>
				<g>
					<path class="st14" d="M216.2,200.9c-0.5-1-12.1-23.6-10.9-31.8c1.1-8.2,9.3-26,9.4-26.2l0.3,0.2c-0.1,0.2-8.3,18-9.4,26.1
						c-1.1,8.1,10.8,31.4,10.9,31.6L216.2,200.9z"/>
				</g>
				<g>
					<path class="st14" d="M221.6,163l-0.3-0.2c2.6-5.6,6.2-11,6.3-11.1l0,0c0,0,3.8-3,4.6-7l0.4,0.1c-0.8,4-4.4,6.9-4.7,7.2
						C227.6,152.4,224.1,157.6,221.6,163z"/>
				</g>
			</g>
			<g>
				<g>
					<path class="st10" d="M209.7,102.8l3.4,5.9c0,0-2,4.4-7.5,2.3l-1.4-3.1L209.7,102.8z"/>
				</g>
				<g>
					<path class="st10" d="M200.7,98.8c0,0-1.7,7.9,1.2,9.3c1.5,0.7,5.7,0.3,6.7-1.3c0.7-1.2,0.4-6.9-0.4-7.5
						C204.8,96.6,200.7,98.8,200.7,98.8z"/>
				</g>
				<g>
					<g>
						<path class="st19" d="M208.1,96.5c-1.3-2.2-3.9-1.8-8.1,0.6c-0.5,0.3-1.8,0.4-1.8,1.1c0,0.8,0.6,2.3,1.6,2.5
							c0.6,0.2,1,0.1,1.7,0c0.9-0.2,2,0.1,2,1.2c0,0.2-0.1,0.7,0.1,0.8c0.1,0,0.4,0,0.6,0c0.4,0,0.6,0.5,0.5,0.9
							c0,0.4,0.2,0.7,0.1,1.1c-0.1,0.9,1,1.9,2,2c0.8,0,3.2-0.3,4.4-1.9c1-1.3,0.8-3.6-0.8-7C209.9,96.6,208.5,96.2,208.1,96.5z"/>
					</g>
				</g>
				<g>
					<path class="st10" d="M203.4,103.1c0.2-1.2,0.9-1.4,1.5-1c0.7,0.4,0.6,2.2,0.3,2.7c-0.5,0.9-1.2,1.1-1.6,0.5"/>
				</g>
				<g>
					<path class="st22" d="M204.6,108.5l-0.2-0.2c0.8-0.7,0.7-2,0.7-2l0.2,0C205.4,106.4,205.5,107.7,204.6,108.5z"/>
				</g>
				<g>
					<g>
						<g>
							<path class="st23" d="M201,102.6c-0.1,0.2-0.1,0.7,0,0.8c0,0,0.1,0,0.2,0C201.7,103.2,201.3,102,201,102.6z"/>
						</g>
					</g>
				</g>
				<g>
					<path class="st23" d="M201.8,102.1c-0.3-0.2-0.9-0.3-1.2-0.2l-0.1-0.4c0.3,0,1,0,1.4,0.3L201.8,102.1z"/>
				</g>
				<g>
					<path class="st2" d="M202.1,105.4l-1.3,0c0,0,0,1.5,0.5,1.6C202,107,202.1,105.4,202.1,105.4z"/>
				</g>
			</g>
			<g>
				<g>
					<path class="st0" d="M212.4,107.4c0,0,3-0.7,7.1,0.4c3.5,1,8,3.7,11.4,7.3c5.8,6.2,3.2,21.7,3.2,21.7l-7.6-0.3
						c0,0,1.2-10-2.8-13.9c-4-4-9.6-4.9-9.6-4.9"/>
				</g>
				<g>
					<g>
						<path class="st10" d="M180,129.1c-2.4,0.6-9.6,1.4-9.7,1.9s2.4,0.2,2.3,0.6c-0.1,0.4-4.1,1-4.1,1.5c0,0.7,4-0.1,4-0.1
							s-1.6,0.3-1.4,0.9c0.1,0.4,0.8,0.5,2.1,0.4c-0.7,0.1-1,0.5-0.8,0.9c0.1,0.4,0.8,0.4,1.6,0.3c-0.5,0.1-0.9,0.4-0.5,0.7
							c0.4,0.4,3.4,0.2,8.6-0.7"/>
					</g>
				</g>
				<g>
					<path class="st0" d="M204.8,109.4c0,0,2,0.9,4.3,0s3.2-2,3.2-2s5.1-0.3,11.4,5.9c6.3,6.2,11.2,24.1,11.2,24.1l-25.8,8.7
						c0,0-4.4-15.6-6.1-22.8C201.2,116.2,204.8,109.4,204.8,109.4z"/>
				</g>
				<g>
					<path class="st24" d="M234.7,137.4c-0.1-0.2-6.4-19.8-11.5-25.7l0.3-0.2c5.1,6,11.5,25.6,11.6,25.8L234.7,137.4z"/>
				</g>
				<g>
					<path class="st0" d="M204.8,109.4c-3.4,1.3-6.3,4.6-8.1,8c-2.9,5.6-4.7,9.6-4.7,9.6l-14.8,2.2l0.7,7.9c0,0,10.1-0.3,18-1.5
						c5.7-0.8,10.1-12.6,10.1-12.6"/>
				</g>
				<g>
					<path class="st24" d="M206.8,111.2c-2.1,0-3.1-1.2-3.1-1.3l0.3-0.2c0.1,0.1,1.6,2,5.3,0.6s3.9-3.1,3.9-3.1l0.4,0
						c0,0.1-0.2,1.9-4.2,3.4C208.4,111.1,207.6,111.2,206.8,111.2z"/>
				</g>
				<g>
					<polygon class="st24" points="204.4,127 204,126.9 205.7,123.5 206,123.7 					"/>
				</g>
				<g>
					
						<rect x="179.6" y="128.8" transform="matrix(0.9978 -6.695671e-02 6.695671e-02 0.9978 -8.4915 12.3386)" class="st24" width="0.4" height="8.1"/>
				</g>
				<g>
					
						<rect x="208" y="139.9" transform="matrix(0.9492 -0.3147 0.3147 0.9492 -32.842 76.8283)" class="st24" width="27.1" height="0.4"/>
				</g>
			</g>
		</g>
		<g>
			<g>
				<g>
					<path class="st10" d="M107.1,122.8c0.1,0.1,0.2,0.1,0.3,0.2c1.1,0.7,2.3,1.5,3.7,1.9c0.7,0.2,1.6,0.3,2.2,0.8
						c0.2,0.2,0.4,0.4,0.7,0.6c0,0,0.8,0.3,0.8,0.2c0.1,0.2,0.4,0.4,0.6,0.5c0,0,0,0,0.1,0c0,0,0,0,0,0c0.1,0.2,0.4,0.2,0.5,0.1
						s-0.1-0.5-0.1-0.5s0.2,0,0.2,0c0.1-0.1,0.1-0.2,0.1-0.3c0.1-1.2-0.4-2.4-1.2-3.3"/>
				</g>
			</g>
			<g>
				<g>
					<g>
						<path class="st25" d="M115.4,125.3c0,0.2,0.1,0.4,0.2,0.6c0.1,0.2,0.1,0.4,0.3,0.6c0,0.1,0.2,0,0.1,0c0-0.2-0.1-0.4-0.2-0.6
							C115.7,125.6,115.6,125.4,115.4,125.3C115.4,125.2,115.4,125.2,115.4,125.3L115.4,125.3z"/>
					</g>
				</g>
			</g>
			<g>
				<g>
					<g>
						<path class="st25" d="M114.1,125.3c0.4,0.5,0.9,0.9,1.3,1.5c0,0,0.1,0,0.1,0C115.3,126.1,114.7,125.7,114.1,125.3
							C114.2,125.2,114.1,125.2,114.1,125.3L114.1,125.3z"/>
					</g>
				</g>
			</g>
			<g>
				<g>
					
						<rect x="101.5" y="123.8" transform="matrix(0.9952 -9.771119e-02 9.771119e-02 0.9952 -16.0173 10.7487)" class="st13" width="0.5" height="90.3"/>
				</g>
				<g>
					<polygon class="st13" points="140.2,213.9 131.4,124.2 97.3,124.2 97.3,123.7 131.8,123.7 131.9,124 140.7,213.8 					"/>
				</g>
				<g>
					
						<rect x="82.1" y="168.7" transform="matrix(9.766626e-02 -0.9952 0.9952 9.766626e-02 -53.3138 279.0129)" class="st13" width="90.3" height="0.5"/>
				</g>
				<g>
					<polygon class="st13" points="88.8,213.9 88.3,213.8 97.1,123.7 131.6,123.7 131.6,124.2 97.5,124.2 					"/>
				</g>
				<g>
					<rect x="89.8" y="200.9" class="st13" width="49.2" height="0.5"/>
				</g>
				<g>
					<rect x="90.9" y="189.8" class="st13" width="47" height="0.5"/>
				</g>
				<g>
					<rect x="92" y="178.5" class="st13" width="45.1" height="0.5"/>
				</g>
				<g>
					<rect x="93" y="167.8" class="st13" width="42.9" height="0.5"/>
				</g>
				<g>
					<rect x="94.1" y="156.5" class="st13" width="40.7" height="0.5"/>
				</g>
				<g>
					<rect x="95.2" y="145.3" class="st13" width="38.6" height="0.5"/>
				</g>
				<g>
					<rect x="96.2" y="134.8" class="st13" width="36.2" height="0.5"/>
				</g>
			</g>
			<g>
				<g>
					<path class="st10" d="M105.2,123.7c3.5,0,7,0,10.6,0c-0.3-0.6-0.5-1-0.9-1.3c-0.4-0.4-0.8-0.7-1.3-1c-1.6-0.8-3.5-1.3-5.3-1.3"
						/>
				</g>
			</g>
			<g>
				<path class="st26" d="M93,99.5c0,0,4.8,12.5,6,13.6s12.7,6.7,12.7,6.7l-3.5,7.4c0,0-13.8-5.5-15.8-7.4s-8.3-9.4-8.9-16.9"/>
			</g>
			<g>
				<g>
					<g>
						<g>
							<path class="st10" d="M83.7,181.5L83.2,195l0.4,4.3h16.1c0.4,0,0.7-0.3,0.7-0.7l0,0c0-0.3-0.2-0.6-0.5-0.7l-7.2-3.3l1.1-14"
								/>
						</g>
						<g>
							<path class="st11" d="M101.2,199c-0.1-0.5-0.5-1.1-0.8-1.3l-7.6-3.3c-4.2,1.7-9.6,0.3-9.6,0.3l-0.4,5.7
								c0,0.2,0.1,0.3,0.3,0.3h18C101.5,200.9,101.2,199.1,101.2,199z"/>
						</g>
						<g>
							<path class="st12" d="M93.6,196.7l-0.3-0.2c0.3-0.7,0.7-1.3,1.1-1.8l0.3,0.2C94.2,195.4,93.9,196,93.6,196.7z"/>
						</g>
						<g>
							<path class="st12" d="M94.7,197l-0.3-0.1c0.3-0.6,0.5-1,0.9-1.6l0.3,0.2C95.2,196,95,196.4,94.7,197z"/>
						</g>
						<g>
							<path class="st12" d="M95.6,197.3l-0.3-0.2l0-0.1c0.2-0.4,0.5-0.9,0.8-1.3l0.3,0.2C96.2,196.3,95.9,196.8,95.6,197.3
								L95.6,197.3z"/>
						</g>
					</g>
					<g>
						<rect x="82.9" y="199.4" class="st12" width="18.4" height="0.4"/>
					</g>
					<g>
						<path class="st12" d="M87.5,199.6c-0.4-2.5-4.4-2.6-4.5-2.6l0-0.4c0.2,0,4.4,0.1,4.8,2.9L87.5,199.6z"/>
					</g>
					<g>
						<path class="st12" d="M97.6,199.7l-0.4-0.1c0.3-0.8,1.5-2.5,1.5-2.6l0.3,0.2C99,197.2,97.8,198.9,97.6,199.7z"/>
					</g>
				</g>
				<g>
					<path class="st0" d="M80.2,130.7c0,0-1.5,6.9,1.8,15.2c0,0,1.6,8.7,1.7,18.7c0.1,10.2-1.2,23.1-1.2,28h13.2
						c0,0,1.6-13.8,1.8-27.7c0.1-15.6-1.1-33.1-1.1-37.6"/>
				</g>
				<g>
					<path class="st24" d="M93.9,192.6l-0.4,0c0-0.1,1.6-14.2,1.8-28c0.1-10.3-0.5-21.6-0.8-29.1c-0.2-3.7-0.3-6.6-0.3-8.1h0.4
						c0,1.5,0.1,4.4,0.3,8.1c0.4,7.5,0.9,18.8,0.8,29.1C95.6,178.4,94,192.5,93.9,192.6z"/>
				</g>
				<g>
					<g>
						<g>
							<path class="st10" d="M106.1,170.5l-0.5,13.5l0.4,4.3h16.1c0.4,0,0.7-0.3,0.7-0.7l0,0c0-0.3-0.2-0.6-0.5-0.7l-7.2-3.3l1.1-14
								"/>
						</g>
						<g>
							<path class="st11" d="M123.6,188.1c-0.1-0.5-0.5-1.1-0.8-1.3l-7.6-3.3c-4.2,1.7-9.6,0.3-9.6,0.3l-0.4,5.7
								c0,0.2,0.1,0.3,0.3,0.3h18C123.9,189.9,123.6,188.1,123.6,188.1z"/>
						</g>
						<g>
							<path class="st12" d="M116,185.7l-0.3-0.2c0.3-0.7,0.7-1.3,1.1-1.8l0.3,0.2C116.6,184.4,116.3,185,116,185.7z"/>
						</g>
						<g>
							<path class="st12" d="M117.1,186l-0.3-0.1c0.3-0.6,0.5-1,0.9-1.6l0.3,0.2C117.6,185.1,117.4,185.4,117.1,186z"/>
						</g>
						<g>
							<path class="st12" d="M118,186.3l-0.3-0.2l0.1-0.1c0.2-0.4,0.5-0.9,0.8-1.3l0.3,0.2C118.5,185.3,118.2,185.8,118,186.3
								L118,186.3z"/>
						</g>
					</g>
					<g>
						<rect x="105.3" y="188.5" class="st12" width="18.4" height="0.4"/>
					</g>
					<g>
						<path class="st12" d="M109.9,188.6c-0.4-2.5-4.4-2.6-4.5-2.6l0-0.4c0.2,0,4.4,0.1,4.8,2.9L109.9,188.6z"/>
					</g>
					<g>
						<path class="st12" d="M120,188.7l-0.4-0.1c0.3-0.8,1.5-2.5,1.5-2.6l0.3,0.2C121.4,186.2,120.2,187.9,120,188.7z"/>
					</g>
				</g>
				<g>
					<path class="st0" d="M102.5,131.5c0,0,12.7,12,15.6,19.9c2,5.5-0.9,30.5-0.9,30.5h-12.7c0,0,1.5-22.8,0.7-25.1
						c-0.9-2.8-11.8-12.2-11.8-12.2s-4.7-1-6.8-6c-2-4.5-1-9.9-1-9.9"/>
				</g>
				<g>
					<path class="st24" d="M114.5,181.9l-0.4,0c0-0.3,2.7-25.9,0.9-30.4c-2.4-5.9-15.4-19.7-15.6-19.9l0.3-0.3
						c0.5,0.6,13.2,14,15.7,20C117.2,155.9,114.6,180.8,114.5,181.9z"/>
				</g>
				<g>
					<path class="st24" d="M97.1,148.2l-0.9-0.8c-0.9-0.9-2-1.8-2.4-2.1c-0.3-0.3-0.7-0.5-1.1-0.7c-1.3-0.5-4.6-2-6.4-5.9l0.3-0.2
						c1.7,3.8,4.9,5.3,6.2,5.7c0.4,0.2,0.8,0.4,1.2,0.7c0.4,0.3,1.5,1.3,2.4,2.2l0.9,0.8L97.1,148.2z"/>
				</g>
				<g>
					<path class="st24" d="M93.4,136.1c-1.6,0-3.2-0.1-3.3-0.1l0-0.4c0,0,3.8,0.1,5.4,0l0,0.4C95,136.1,94.2,136.1,93.4,136.1z"/>
				</g>
				<g>
					<rect x="79.8" y="135.6" class="st24" width="3.1" height="0.4"/>
				</g>
			</g>
			<g>
				<g>
					<g>
						<g>
							<g>
								<path class="st10" d="M125.2,100.9c1.3-0.6,7.4-3.3,7.5-2.9c0.1,0.3-1.8,1.6-1.6,1.7c0.1,0,1.8-0.4,2.7-0.8
									c0.7-0.4,2-0.8,2.3-0.5c0.4,0.6-3.8,2.6-3.8,2.6s0.7-0.3,1.1,0.1c0.5,0.6-0.6,1.3-0.6,1.3s0.6-0.3,0.9,0.2s-0.7,1.1-0.7,1.1
									s0.8-0.4,0.9,0.3c0.1,0.9-6.1,3.2-6.1,3.2"/>
							</g>
						</g>
					</g>
				</g>
				<g>
					<path class="st11" d="M94.5,94.8c0,0-1.3,1-3.3,0.6c-2-0.3-2.5-1.3-2.5-1.3s-5.4,0.7-8,17.3c-1.8,11.6-1.2,21.1-1.2,21.1h24.5
						c0,0,0.7-25.3-0.5-30"/>
				</g>
				<g>
					<path class="st11" d="M96.5,107c0,0,7.2,8,14,8c6.8,0,19.5-7.2,19.5-7.2l-3-8.4l-14.8,5.3c0,0-7.8-7.3-11.4-8.6
						s-6.2-1.3-6.2-1.3"/>
				</g>
				<g>
					<path class="st12" d="M104.2,113.3c0,0-4.6-3.5-6.7-5.1l0.2-0.3c2.2,1.6,6.7,5.1,6.7,5.1L104.2,113.3z"/>
				</g>
				<g>
					
						<rect x="126.8" y="99.8" transform="matrix(0.9513 -0.3081 0.3081 0.9513 -25.9734 44.2047)" class="st12" width="0.4" height="9.2"/>
				</g>
				<g>
					<rect x="79.5" y="130.4" class="st12" width="24.6" height="0.4"/>
				</g>
				<g>
					<path class="st12" d="M100.2,132.6l-0.4,0c0-0.2,0.2-15.7,0-22.7l0.4,0C100.4,116.9,100.2,132.4,100.2,132.6z"/>
				</g>
			</g>
			<g>
				<g>
					<path class="st10" d="M88.8,90.5L88.3,95c0,0,4.3,2.3,7.2-0.1v-2.6L88.8,90.5z"/>
				</g>
				<g>
					<path class="st10" d="M94.7,83.5c0,0,5.1,6.3,3.2,8.7c-0.9,1.2-4.1,0.9-5.6,0c-1.1-0.7-4.2-4.4-3.7-5.3
						C90.4,83.3,94.7,83.5,94.7,83.5z"/>
				</g>
				<g>
					<path class="st17" d="M94.1,84.7c0.1,2.6-0.2,4.9-0.2,4.9L93.4,98c0,0-6.6,0.7-10.9-2.2c0,0,1.4-8.8,4.6-11.4
						c3-2.5,6.9-2.3,9-0.7c0,0-0.3,0.7-0.6,0.9C95,84.6,94.1,84.7,94.1,84.7"/>
				</g>
				<g>
					<path class="st10" d="M94.5,88.7c-0.6-0.8-1.1-0.6-1.4-0.2c-0.3,0.6,0.3,1.8,0.7,2c0.7,0.4,1.2,0.3,1.3-0.2"/>
				</g>
				<g>
					<path class="st22" d="M95.5,93.1c-0.7,0-1-0.4-1.1-0.7l0.2-0.1c0,0,0.2,0.5,0.8,0.5V93.1z"/>
				</g>
				<g>
					<g>
						<g>
							<path class="st23" d="M96,86.8c0.2,0.2,0.4,0.5,0.3,0.7c0,0-0.1,0.1-0.1,0.1C95.7,87.5,95.6,86.4,96,86.8z"/>
						</g>
					</g>
				</g>
				<g>
					<path class="st23" d="M95,86.7C95,86.7,95,86.7,95,86.7c-0.1,0-0.1-0.1-0.1-0.2c0.2-0.5,0.6-0.8,1.1-0.8c0.1,0,0.1,0.1,0.1,0.1
						c0,0.1-0.1,0.1-0.1,0.1c-0.5,0-0.7,0.4-0.8,0.7C95.1,86.7,95.1,86.7,95,86.7z"/>
				</g>
				<g>
					<path class="st2" d="M96.4,90l1.1-0.3c0,0,0.4,1.4-0.1,1.5C96.9,91.4,96.4,90,96.4,90z"/>
				</g>
				<g>
					<g>
						<path class="st17" d="M90.3,82.7c0.4-0.1,0.7-0.6,0.7-1c0-0.4-0.3-0.9-0.7-1.1c-0.4-0.2-0.9-0.2-1.3-0.1
							c-0.1,0-0.3,0.1-0.5,0.2c-0.6,0.4-0.5,1.3-0.1,1.9c0.1,0.2,0.4,0.4,0.7,0.5c0.3,0,0.9,0,1.2-0.2"/>
					</g>
				</g>
			</g>
			<g>
				<path class="st10" d="M96.6,86.7c0.1,0,1.4,0.6,1.5,1.2c0,0.3-0.7,0.6-0.7,0.6"/>
			</g>
			<g>
				<g>
					<path class="st10" d="M114.1,122.7c0.8,0.8,1,1.7,1.4,2.4c0,0,0,0,0,0.1c0,0.1-0.2,0.1-0.4,0.1c-0.3-0.1-0.6-0.3-0.9-0.5
						c-0.1-0.1-0.2-0.2-0.3-0.2c-0.2-0.1-0.5-0.1-0.7-0.2c-1-0.1-2.1-0.6-2.7-1.6"/>
				</g>
			</g>
			<g>
				<g>
					<path class="st22" d="M114.1,122.7c0.5,0.5,0.9,1.1,1.2,1.8l0.2,0.5c0,0,0,0.1,0,0.2s-0.1,0.1-0.1,0.2c-0.1,0-0.2,0-0.3,0
						c-0.3-0.1-0.7-0.3-1-0.6c-0.1-0.1-0.2-0.2-0.4-0.3c-0.1,0-0.3-0.1-0.5-0.1c-0.3,0-0.7-0.1-1.1-0.2c-0.7-0.3-1.3-0.8-1.6-1.4
						c0.4,0.6,1,1,1.7,1.3c0.3,0.1,0.7,0.2,1,0.2c0.2,0,0.4,0,0.6,0.1c0.2,0,0.3,0.2,0.5,0.3c0.2,0.2,0.6,0.4,0.9,0.5
						c0,0,0.1,0,0.2,0c0,0,0,0,0,0v0c-0.1-0.1-0.1-0.3-0.2-0.5C114.9,123.9,114.5,123.2,114.1,122.7z"/>
				</g>
			</g>
		</g>
		<g>
			<g>
				<g>
					<g>
						<g>
							<path class="st10" d="M29.6,193.5l-0.4,14.1l0.4,4.5l16.9-0.1c0.4,0,0.8-0.3,0.7-0.8l0,0c0-0.3-0.2-0.6-0.5-0.7l-7.5-3.5
								l1.1-14.7"/>
						</g>
						<g>
							<path class="st20" d="M48.1,211.8c-0.2-0.5-0.5-1.2-0.8-1.3l-8-3.4c-4.4,1.8-10.1,0.4-10.1,0.4l-0.4,6c0,0.2,0.1,0.3,0.3,0.3
								l18.8-0.1C48.3,213.7,48.1,211.9,48.1,211.8z"/>
						</g>
						<g>
							<path class="st27" d="M40,209.4l-0.3-0.2c0.3-0.6,0.7-1.3,1.2-1.9l0.3,0.2C40.7,208.1,40.3,208.7,40,209.4z"/>
						</g>
						<g>
							<path class="st27" d="M41.2,209.7l-0.3-0.2c0.3-0.6,0.5-0.9,1-1.6l0.3,0.2C41.7,208.8,41.5,209.1,41.2,209.7z"/>
						</g>
						<g>
							<path class="st27" d="M42.1,210l-0.3-0.1c0.2-0.5,0.5-1.1,0.9-1.5l0.3,0.2C42.7,209,42.3,209.5,42.1,210z"/>
						</g>
					</g>
					<g>
						
							<rect x="28.8" y="212.3" transform="matrix(1 -5.208263e-03 5.208263e-03 1 -1.1062 0.2032)" class="st27" width="19.3" height="0.4"/>
					</g>
					<g>
						<path class="st27" d="M33.6,212.5c-0.4-2.6-4.6-2.7-4.7-2.7l0-0.4c0.2,0,4.6,0.1,5,3L33.6,212.5z"/>
					</g>
					<g>
						<path class="st27" d="M44.2,212.5l-0.4-0.1c0.3-0.9,1.5-2.7,1.6-2.7l0.3,0.2C45.7,209.9,44.5,211.7,44.2,212.5z"/>
					</g>
				</g>
				<g>
					<path class="st0" d="M31.2,142.9c0,0,9,16.8,11.8,27.4c2.8,10.6-0.9,34.3-0.9,34.3H28.1c0,0,2.8-25.8-0.5-34.3
						c-3.3-8.5-15.1-31-15.1-31"/>
				</g>
				<g>
					<path class="st24" d="M30.2,204.6l-0.4,0c0-0.3,2.3-26.9,0.9-33.5c-1.4-6.5-10.9-21.9-11-22l0.3-0.2
						c0.1,0.2,9.7,15.6,11.1,22.2C32.5,177.7,30.2,204.4,30.2,204.6z"/>
				</g>
				<g>
					<g>
						<g>
							<path class="st10" d="M13.7,185.6L5.4,197l-2.2,3.9l13.6,9.9c0.3,0.2,0.8,0.1,1.1-0.2l0,0c0.2-0.2,0.2-0.6,0-0.9l-4.1-7.2
								l9.1-11.9"/>
						</g>
						<g>
							<path class="st20" d="M18.2,211.5c0.2-0.5,0.3-1.2,0.1-1.6l-4.5-7.4c-4.6-1.1-8.4-5.6-8.4-5.6l-3.9,4.6
								c-0.1,0.1-0.1,0.4,0.1,0.5l15.3,11C17.3,213.2,18.2,211.5,18.2,211.5z"/>
						</g>
						<g>
							<path class="st27" d="M13.1,204.7l-0.2-0.3c0.7-0.4,1.4-0.7,2.1-0.9l0.1,0.4C14.5,204.1,13.8,204.4,13.1,204.7z"/>
						</g>
						<g>
							<path class="st27" d="M13.9,205.7l-0.2-0.3c0.5-0.3,0.9-0.5,1.7-0.8l0.1,0.4C14.8,205.2,14.4,205.4,13.9,205.7z"/>
						</g>
						<g>
							<path class="st27" d="M14.4,206.5l-0.2-0.3c0.5-0.2,1.1-0.6,1.6-0.7l0.1,0.4C15.5,206,14.9,206.3,14.4,206.5z"/>
						</g>
					</g>
					<g>
						
							<rect x="9.9" y="196.7" transform="matrix(0.5822 -0.813 0.813 0.5822 -163.5918 94.4027)" class="st27" width="0.4" height="19.3"/>
					</g>
					<g>
						<path class="st27" d="M6.5,203.8l-0.3-0.2c1.2-2.3-2.2-4.9-2.2-4.9l0.2-0.3C4.3,198.5,7.9,201.2,6.5,203.8z"/>
					</g>
					<g>
						<path class="st27" d="M14.7,209.8l-0.2-0.3c0.7-0.5,2.8-1.2,2.9-1.3l0.1,0.4C17.4,208.6,15.3,209.3,14.7,209.8z"/>
					</g>
				</g>
				<g>
					<path class="st0" d="M8.8,139.2c-2.7,7.5,0,13.4,0,13.4s9.1,16.6,9.1,19.9c0,3.1-11.6,20.7-11.6,20.7l10.6,8.5
						c0,0,16.7-17.9,16.4-30.4c-0.4-15.4-8.8-32.2-8.8-32.2"/>
				</g>
				<g>
					<path class="st24" d="M8,194.6l-0.3-0.2c0.1-0.2,12.1-18.3,12.1-21.3c0-3.3-8.4-20.5-8.5-20.7c0,0-0.8-1.3-1.3-3.5
						c-0.4-2-0.7-5.3,0.7-9.2l0.4,0.1c-2.6,7.4,0.5,12.4,0.5,12.4c0.4,0.7,8.6,17.5,8.6,20.9C20.1,176.2,8.5,193.9,8,194.6z"/>
				</g>
				<g>
					<path class="st24" d="M29.2,185.1l-0.3-0.2c2.9-5.3,4.3-9.8,4.2-13.5c-0.4-15.1-8.7-31.9-8.8-32.1l0.3-0.2
						c0.1,0.2,8.4,17,8.8,32.2C33.6,175.2,32.1,179.8,29.2,185.1z"/>
				</g>
				<g>
					<path class="st24" d="M10.1,145.8c-0.1,0-0.2,0-0.2,0l0-0.4c0,0,4.7,0.2,6.4-3.4l0.3,0.2C15.1,145.6,11.1,145.8,10.1,145.8z"/>
				</g>
				<g>
					<path class="st24" d="M28.4,148c-0.2,0-0.3,0-0.3,0l0-0.4c0.3,0,0.8,0,0.9-0.1c0,0,0-0.1,0-0.1c-0.1-0.6-1.2-4.1-1.2-4.1
						l0.4-0.1c0,0.1,1.1,3.5,1.2,4.1c0,0.2,0,0.3-0.1,0.5C29.1,148,28.7,148,28.4,148z"/>
				</g>
			</g>
			<g>
				<g>
					<path class="st28" d="M34.1,99.3c0.5,3,0.1,5.7-2.5,6.1c-2.6,0.4-6.2-0.3-6.9-4.7c-0.5-3,1.2-5.8,3.8-6.2
						C31.2,94.1,33.7,96.3,34.1,99.3z"/>
				</g>
				<g>
					<g>
						<g>
							<path class="st23" d="M32,99.3c0,0.3,0,0.6,0.2,0.8c0,0,0.1,0,0.2,0C32.8,99.7,32.1,98.7,32,99.3z"/>
						</g>
					</g>
				</g>
				<g>
					<path class="st23" d="M31.2,98.8c0,0-0.1,0-0.1-0.1c0-0.1,0-0.1,0.1-0.2c0.6-0.3,1.2-0.4,1.9-0.1c0.1,0,0.1,0.1,0.1,0.2
						c0,0.1-0.1,0.1-0.2,0.1C32.3,98.4,31.8,98.5,31.2,98.8C31.2,98.8,31.2,98.8,31.2,98.8z"/>
				</g>
				<g>
					<path class="st2" d="M33.7,102.5H32c0,0-0.1,1.4,0.7,1.5C33.5,104.1,33.7,102.5,33.7,102.5z"/>
				</g>
				<g>
					<g>
						<path class="st28" d="M30.3,108.8c0,0-2,0.3-3.9-0.1c-2.2-0.6-2.9-1.5-2.9-1.5l3.1-6.5l4.8,2.2L30.3,108.8z"/>
					</g>
				</g>
				<g>
					<path class="st16" d="M30.8,105.8c-0.4,0-2.2-0.1-3.3-1l0.3-0.4c1,0.9,3,0.9,3,0.9L30.8,105.8
						C30.9,105.8,30.9,105.8,30.8,105.8z"/>
				</g>
				<g>
					<path class="st28" d="M33.6,99.2c0,0,1.3,1.9,1.2,2.2c0,0.3-1,0.5-1,0.5"/>
				</g>
				<g>
					<g>
						<path class="st29" d="M26.6,103.5c-0.3,0.1-0.6,0.1-0.9,0.2c-0.6,0-1.2,0-1.8-0.3c-1-0.5-1.6-1.7-1.4-2.8
							c0-0.2,0.1-0.3,0.1-0.5c0.1-0.8-0.3-1.6-0.5-2.5c-0.1-0.8,0.1-1.7,0.5-2.4c0.4-0.7,1.1-1.2,1.9-1.5c0.6-0.2,1.3-0.3,1.8-0.8
							c0.2-0.2,0.4-0.4,0.7-0.6c1.3-0.8,3.1-0.3,4.3,0.5c0.1,0.1,0.3,0.2,0.4,0.2c0.3,0.1,0.6,0,0.8,0c1.1,0.2,1.6,1.8,1.6,2.8
							c0,0.3-0.1,0.6-0.2,0.8c-0.2,0.3-0.7,0.5-1.1,0.5c-0.6,0-1.2,0-1.7,0.1c-0.4,0.1-0.7,0.4-1.1,0.5c-0.6,0.2-1.3,0.2-1.8,0
							c0.1,0.4,0.2,0.8,0.1,1.2c-0.1,0.8-0.8,1.1-1.5,1.3c0.2,0.8,0.4,1.8,0.2,2.6C27.1,103.3,26.9,103.4,26.6,103.5z"/>
					</g>
				</g>
				<g>
					<path class="st15" d="M27.6,99.8c0,0-0.6-0.7-1.3-0.1c-0.9,0.8,0.3,2.5,1,2.7c0.7,0.3,0.9-0.5,0.9-0.5"/>
				</g>
			</g>
			<g>
				<g>
					<path class="st0" d="M62.8,132.8c1-0.8,1.9-1.8,2.7-2.9c0.8-1.1,1.4-2.2,1.9-3.4l-3.1-1.7c0.4-1.1,0.7-2.2,0.8-3.4h3.6
						c0.2-2.6-0.2-5.3-1.1-7.7l-3.4,1c-0.4-1.1-1-2.1-1.8-3l2.5-2.5c-0.8-1-1.8-1.9-2.9-2.7c-1.1-0.8-2.2-1.4-3.4-1.9l-1.7,3.1
						c-1.1-0.4-2.2-0.7-3.4-0.8v-3.6c-2.6-0.2-5.3,0.2-7.7,1.1l1,3.4c-1.1,0.4-2.1,1-3,1.8l-2.5-2.5c-1,0.8-1.9,1.8-2.7,2.9
						s-1.4,2.2-1.9,3.4l3.1,1.7c-0.4,1.1-0.7,2.2-0.8,3.4h-3.6c-0.2,2.6,0.2,5.3,1.1,7.7l3.4-1c0.4,1.1,1,2.1,1.8,3l-2.5,2.5
						c0.8,1,1.8,1.9,2.9,2.7c1.1,0.8,2.2,1.4,3.4,1.9l1.7-3.1c1.1,0.4,2.2,0.7,3.4,0.8v3.6c2.6,0.2,5.3-0.2,7.7-1.1l-1-3.4
						c1.1-0.4,2.1-1,3-1.8L62.8,132.8z M48.3,125.1c-2.8-2.1-3.4-6-1.3-8.8c2.1-2.8,6-3.4,8.8-1.3c2.8,2.1,3.4,6,1.3,8.8
						C55,126.6,51.1,127.2,48.3,125.1z"/>
				</g>
				<g>
					<g>
						<g>
							<g>
								<path class="st10" d="M53,132.1c1.4,0.1,8,0.8,8,1.2c0,0.4-2.3,0.5-2.2,0.7c0.1,0.3,1.8,0.5,2.7,0.6c0.8,0,2.2,0.2,2.2,0.6
									c0,0.7-4.6,0.4-4.6,0.4c0,0.2,5.1-0.6,5.2,0c0.1,0.8-5.3,1.3-5.4,1.5c0,0,4.6-1.6,4.7-1c0.1,0.6-3.9,2.2-5.3,2.2
									c1-0.2,4.2-2,4.3-1.5s-2.7,1.6-3.1,1.7c-3.7,0.6-7.4,0.2-7.4,0.2"/>
							</g>
						</g>
					</g>
				</g>
				<g>
					<path class="st13" d="M30.4,108.4c0,0-1.4,0.7-3.6-0.2c-2.3-1-2.8-2.2-2.8-2.2S11.4,107.1,6.8,142l25.8,3.2
						c0,0,2.1-12.5,1.7-22.6C34.1,116.1,31.6,111.1,30.4,108.4"/>
				</g>
				<g>
					<path class="st13" d="M22.8,122.3c0,0,4,13.3,14.7,16.2c9.6,2.6,17,2.5,17,2.5l1-9c0,0-11.7-2.1-16.5-5.3
						c-3.7-2.4-4.4-10.2-5.3-12.9c-1.3-3.8-3.4-5.6-3.4-5.6"/>
				</g>
				<g>
					<path class="st14" d="M29.3,109.8c-0.5,0-1.1-0.1-1.9-0.2c-3.7-0.8-4.6-3.2-4.6-3.3l0.4-0.1c0,0,0.8,2.3,4.3,3.1
						c2.5,0.6,3.6-0.2,3.6-0.2l0.2,0.3C31.2,109.4,30.6,109.8,29.3,109.8z"/>
				</g>
				<g>
					<path class="st14" d="M33.2,137.2c-0.1,0-9.9-4.7-10.4-17.5l0.4,0c0.5,12.5,10.1,17.1,10.2,17.1L33.2,137.2z"/>
				</g>
				<g>
					
						<rect x="48" y="136.2" transform="matrix(0.138 -0.9904 0.9904 0.138 -89.5988 169.7406)" class="st14" width="9.4" height="0.4"/>
				</g>
			</g>
		</g>
	</g>
</g>
</svg>
