<?xml version="1.0" encoding="utf-8"?>
<!-- Generator: Adobe Illustrator 26.4.1, SVG Export Plug-In . SVG Version: 6.00 Build 0)  -->
<svg version="1.1" id="Layer_1" xmlns="http://www.w3.org/2000/svg" xmlns:xlink="http://www.w3.org/1999/xlink" x="0px" y="0px"
	 width="21.8px" height="17.8px" viewBox="0 0 21.8 17.8" style="enable-background:new 0 0 21.8 17.8;" xml:space="preserve">
<style type="text/css">
	.st0{fill-rule:evenodd;clip-rule:evenodd;fill:#FFFFFF;}
</style>
<path class="st0" d="M21.8,2.9c0-0.8-0.3-1.5-0.8-2.1C20.4,0.3,19.7,0,18.9,0c-3.8,0-12.2,0-16,0C2.1,0,1.4,0.3,0.8,0.8
	C0.3,1.4,0,2.1,0,2.9c0,3.1,0,8.9,0,12c0,0.8,0.3,1.5,0.8,2.1c0.5,0.5,1.3,0.8,2.1,0.8c3.8,0,12.2,0,16,0c0.8,0,1.5-0.3,2.1-0.8
	c0.5-0.5,0.8-1.3,0.8-2.1V2.9z M20,2.9v12c0,0.3-0.1,0.6-0.3,0.8c-0.2,0.2-0.5,0.3-0.8,0.3c-3.8,0-12.2,0-16,0
	c-0.3,0-0.6-0.1-0.8-0.3c-0.2-0.2-0.3-0.5-0.3-0.8c0-3.1,0-8.9,0-12c0-0.3,0.1-0.6,0.3-0.8c0.2-0.2,0.5-0.3,0.8-0.3
	c3.8,0,12.2,0,16,0c0.3,0,0.6,0.1,0.8,0.3C19.9,2.3,20,2.6,20,2.9z M4.8,5.2v8.6c0,0.5-0.4,0.9-0.9,0.9S3,14.4,3,13.9v-10
	c0-0.3,0.2-0.6,0.4-0.8C3.7,3,4,2.9,4.2,3l6.6,2.8L17.5,3c0.3-0.1,0.6-0.1,0.8,0.1c0.3,0.2,0.4,0.4,0.4,0.8v10
	c0,0.5-0.4,0.9-0.9,0.9S17,14.4,17,13.9V5.2l-5.7,2.5c-0.2,0.1-0.5,0.1-0.7,0L4.8,5.2z"/>
</svg>
