<?xml version="1.0" encoding="utf-8"?>
<!-- Generator: Adobe Illustrator 26.3.1, SVG Export Plug-In . SVG Version: 6.00 Build 0)  -->
<svg version="1.1" id="_이어_1" xmlns="http://www.w3.org/2000/svg" xmlns:xlink="http://www.w3.org/1999/xlink" x="0px" y="0px"
	 width="60.5px" height="22px" viewBox="0 0 60.5 22" style="enable-background:new 0 0 60.5 22;" xml:space="preserve">
<polygon points="13,8.9 4.1,8.9 4.1,0 0,0 0,22 4.1,22 4.1,13 13,13 13,22 17.1,22 17.1,0 13,0 "/>
<rect x="20.4" width="4.1" height="22"/>
<path d="M42.6,12.2c0.8-1.3,1.2-2.7,1.2-4.2c0-2.2-0.8-4.1-2.4-5.7C39.9,0.8,38,0,35.8,0h-8v22h4.1v-6h2.7c1.4,0,2.6,0.5,3.5,1.5
	c1,1,1.5,2.1,1.5,3.5v1h4.1v-1c0-1.5-0.4-3-1.1-4.4c-0.6-1-1.2-1.8-1.8-2.3C41.4,13.9,42,13.2,42.6,12.2L42.6,12.2z M31.9,4.1h3.9
	c1.1,0,2,0.4,2.8,1.1C39.3,6,39.7,6.9,39.7,8s-0.4,2-1.1,2.8c-0.8,0.8-1.7,1.1-2.8,1.1h-3.9L31.9,4.1L31.9,4.1z"/>
<polygon points="60.5,4.1 60.5,0 46.6,0 46.6,22 60.5,22 60.5,17.9 50.7,17.9 50.7,13 58.6,13 58.6,8.9 50.7,8.9 50.7,4.1 "/>
</svg>
